<?xml version="1.0" encoding="UTF-8" standalone="no"?>
<!-- Created with Inkscape (http://www.inkscape.org/) -->

<svg
   xmlns:dc="http://purl.org/dc/elements/1.1/"
   xmlns:cc="http://creativecommons.org/ns#"
   xmlns:rdf="http://www.w3.org/1999/02/22-rdf-syntax-ns#"
   xmlns:svg="http://www.w3.org/2000/svg"
   xmlns="http://www.w3.org/2000/svg"
   xmlns:sodipodi="http://sodipodi.sourceforge.net/DTD/sodipodi-0.dtd"
   xmlns:inkscape="http://www.inkscape.org/namespaces/inkscape"
   id="svg2"
   version="1.1"
   inkscape:version="0.48.5 r10040"
   width="14173.229"
   height="16897.213"
   xml:space="preserve"
   sodipodi:docname="New document 1"><metadata
     id="metadata8"><rdf:RDF><cc:Work
         rdf:about=""><dc:format>image/svg+xml</dc:format><dc:type
           rdf:resource="http://purl.org/dc/dcmitype/StillImage" /><dc:title></dc:title></cc:Work></rdf:RDF></metadata><defs
     id="defs6" /><sodipodi:namedview
     pagecolor="#ffffff"
     bordercolor="#666666"
     borderopacity="1"
     objecttolerance="10"
     gridtolerance="10"
     guidetolerance="10"
     inkscape:pageopacity="0"
     inkscape:pageshadow="2"
     inkscape:window-width="640"
     inkscape:window-height="480"
     id="namedview4"
     showgrid="false"
     inkscape:zoom="0.0139668"
     inkscape:cx="7086.6143"
     inkscape:cy="8448.6064"
     inkscape:window-x="0"
     inkscape:window-y="27"
     inkscape:window-maximized="0"
     inkscape:current-layer="g10" /><g
     id="g10"
     inkscape:groupmode="layer"
     inkscape:label="banner2"
     transform="matrix(1.25,0,0,-1.25,0,16897.213)"><g
       id="g12"><path
         d="m 0,13517.771 11338.582,0 0,-13517.77 L 0,0.001 0,13517.771 z"
         style="fill:#ffffff;fill-opacity:1;fill-rule:nonzero;stroke:none"
         id="path14" /><path
         d="m 7990.668,12791.329 c -1910.715,0 -2269.141,-2721.461 -1194.254,-2721.461 1074.731,0 3105.051,2721.461 1194.254,2721.461 z"
         style="fill:#000000;fill-opacity:1;fill-rule:nonzero;stroke:none"
         id="path16" /><path
         d="m 4817.973,10407.087 c 572.312,-34.949 1200.238,2184.101 124.574,2044.535 -1075.274,-139.562 -697.121,-2009.582 -124.574,-2044.535 z"
         style="fill:#000000;fill-opacity:1;fill-rule:nonzero;stroke:none"
         id="path18" /><path
         d="m 2195.066,9028.224 c 407.043,179.172 52.426,1931.683 -639.726,1453.734 -691.84,-478.027 232.683,-1632.832 639.726,-1453.734 z"
         style="fill:#000000;fill-opacity:1;fill-rule:nonzero;stroke:none"
         id="path20" /><path
         d="m 3341.949,9945.524 c 484.551,98.789 511.113,2086.395 -352.988,1729.836 -864.258,-356.636 -131.176,-1828.781 352.988,-1729.836 z"
         style="fill:#000000;fill-opacity:1;fill-rule:nonzero;stroke:none"
         id="path22" /><path
         d="M 5872.199,5497.567 C 5958.176,4840.985 5390.52,4516.735 4834.594,4940.009 3064.84,6287.423 7764.82,6959.614 7455.012,8800.431 7197.863,10328.415 2509.609,9857.997 1975.742,7467.153 c -361.379,-1617.062 1487.52,-3860.5 3416.719,-3860.5 949.066,0 2043.758,856.957 2248.562,1942.563 156.415,827.832 -1840.585,496.125 -1768.824,-51.649 z"
         style="fill:#000000;fill-opacity:1;fill-rule:nonzero;stroke:none"
         id="path24" /><path
         d="m 4957.07,2640.97 c -236.66,-6.379 -423.55,-91.434 -560.992,-254.551 -142.332,-169.754 -213.922,-404.313 -213.922,-703.445 0,-298.305 71.594,-532.219 213.922,-701.977 143.027,-169.754 339.399,-254.547 589.875,-254.547 251.168,0 448.031,84.793 590.363,254.547 142.329,169.758 213.434,403.672 213.43,701.977 0,299.132 -71.101,533.691 -213.43,703.445 -142.332,169.746 -339.199,254.551 -590.363,254.551 -9.785,0 -19.262,0.261 -28.883,0 z m 17.625,-344.625 c 3.782,0.09 7.418,0 11.258,0 123.488,0 219.18,-53.438 286.859,-160.563 67.676,-107.129 101.821,-258.332 101.821,-452.808 0,-193.649 -34.149,-343.723 -101.821,-450.852 -67.679,-107.129 -163.371,-161.051 -286.859,-161.051 -122.797,0 -217.715,53.922 -285.391,161.051 -67.679,107.129 -101.82,257.203 -101.82,450.852 0,194.476 34.145,345.679 101.82,452.808 65.559,103.778 156.84,157.317 274.133,160.563 z"
         style="fill:#000000;fill-opacity:1;fill-rule:nonzero;stroke:none"
         id="path26" /><path
         d="M 2283.621,899.493 C 2075.164,724.431 1765.016,726.442 1635.809,726.442 c -260.243,0 -466.411,85.704 -618.508,257.11 -152.098,172.219 -228.145,405.426 -228.145,699.617 0,297.484 77.442,531.516 232.332,702.094 154.891,170.57 366.989,255.863 636.301,255.863 103.953,0 203.375,-11.539 298.266,-34.609 95.582,-23.071 185.586,-57.27 270.007,-102.594 l -108.414,-320.512 c -47.46,25.981 -101.8,51.59 -152.175,69.59 -85.817,28.844 -171.985,43.258 -258.496,43.258 -160.473,0 -284.313,-53.149 -371.524,-159.453 -86.515,-105.477 -129.773,-256.688 -129.773,-453.637 0,-195.305 41.859,-346.102 125.586,-452.406 83.722,-106.305 209.543,-159.453 356.871,-159.453 149.672,0 242.379,37.726 291.82,77.476 l 0,319.305 -324.262,0 0,318.91 627.926,0"
         style="fill:#000000;fill-opacity:1;fill-rule:nonzero;stroke:none"
         id="path28" /><path
         d="m 6054.223,2607.755 512.808,0 355.828,-1152.109 357.918,1152.109 433.438,0 195.808,-1845.465 -380.941,0 -117.484,1153.984 -360.012,-1159.515 -255.359,0 -360.012,1198.683 -117.485,-1193.152 -381.992,0 195.809,1845.465"
         style="fill:#000000;fill-opacity:1;fill-rule:nonzero;stroke:none"
         id="path30" /><path
         d="m 8184.992,2607.755 1087.363,0 0,-359.699 -684.445,0 0,-382.789 526.145,0 0,-320.539 -526.145,0 0,-422.743 707.469,0 0,-359.695 -1110.387,0 0,1845.465"
         style="fill:#000000;fill-opacity:1;fill-rule:nonzero;stroke:none"
         id="path32" /><path
         d="m 2559.031,2607.755 254.207,0 803.246,-1109.098 0,1109.098 342.828,0 0,-1845.465 -254.207,0 -803.246,1109.094 0,-1109.094 -342.828,0 0,1845.465"
         style="fill:#000000;fill-opacity:1;fill-rule:nonzero;stroke:none"
         id="path34" /><path
         d="m 9592.289,2652.083 425.516,0 0,-57.281 -178.563,0 0,-445.735 -68.39,0 0,445.735 -178.563,0 0,57.281 z m 497.086,0 101.406,0 128.375,-342.312 129.032,342.312 101.39,0 0,-503.016 -66.344,0 0,441.688 -129.718,-345 -68.391,0 -129.719,345 0,-441.688 -66.031,0 0,503.016 z"
         style="fill:#000000;fill-opacity:1;fill-rule:nonzero;stroke:none"
         id="path36" /></g></g></svg>