<?xml version="1.0" encoding="UTF-8" standalone="no"?>
<!-- Created with Inkscape (http://www.inkscape.org/) -->

<svg
   xmlns:dc="http://purl.org/dc/elements/1.1/"
   xmlns:cc="http://creativecommons.org/ns#"
   xmlns:rdf="http://www.w3.org/1999/02/22-rdf-syntax-ns#"
   xmlns:svg="http://www.w3.org/2000/svg"
   xmlns="http://www.w3.org/2000/svg"
   xmlns:sodipodi="http://sodipodi.sourceforge.net/DTD/sodipodi-0.dtd"
   xmlns:inkscape="http://www.inkscape.org/namespaces/inkscape"
   id="svg2"
   version="1.1"
   inkscape:version="0.48.5 r10040"
   width="2881.9299"
   height="121.40625"
   xml:space="preserve"
   sodipodi:docname="New document 1"><metadata
     id="metadata8"><rdf:RDF><cc:Work
         rdf:about=""><dc:format>image/svg+xml</dc:format><dc:type
           rdf:resource="http://purl.org/dc/dcmitype/StillImage" /><dc:title></dc:title></cc:Work></rdf:RDF></metadata><defs
     id="defs6" /><sodipodi:namedview
     pagecolor="#ffffff"
     bordercolor="#666666"
     borderopacity="1"
     objecttolerance="10"
     gridtolerance="10"
     guidetolerance="10"
     inkscape:pageopacity="0"
     inkscape:pageshadow="2"
     inkscape:window-width="640"
     inkscape:window-height="480"
     id="namedview4"
     showgrid="false"
     inkscape:zoom="0.10930176"
     inkscape:cx="1440.965"
     inkscape:cy="60.703125"
     inkscape:window-x="0"
     inkscape:window-y="27"
     inkscape:window-maximized="0"
     inkscape:current-layer="g10" /><g
     id="g10"
     inkscape:groupmode="layer"
     inkscape:label="back_bottom"
     transform="matrix(1.25,0,0,-1.25,0,121.40625)"><g
       id="g12"><path
         d="m 0,4.012 0,3.394 46.742,0 0,-6.785 -46.742,0 0,3.391 z m 53.262,0 0.039,3.363 33.437,0 c 20.59,0 33.438,0 33.438,-0.102 0,-0.183 -2.5,-2.054 -3.809,-2.851 -2.863,-1.758 -5.691,-2.77 -9.543,-3.445 C 105.441,0.734 103.215,0.711 79.27,0.66 l -26.051,0 0.043,3.352 z m 80.031,0 0,3.394 33.473,0 0,-6.785 -33.473,0 0,3.391 z M 186.211,1.02 c -0.481,1.257 -2.106,6.05 -2.106,6.214 0,0.133 0.68,0.172 2.641,0.172 2.012,0 2.637,0 2.637,-0.183 0,-0.102 -0.504,-1.614 -1.113,-3.352 -1.043,-2.976 -1.137,-3.168 -1.508,-3.219 -0.313,0 -0.426,0 -0.551,0.368 z m 20.398,2.964 0.039,3.352 33.473,0 0.043,-3.352 0.039,-3.363 -33.637,0 0.043,3.363 z m 48.289,-3.14 c -2.613,0.574 -4.882,2.179 -6.148,4.344 -1.703,2.902 -1.625,6.789 0.191,9.558 2.344,3.574 6.649,5.098 10.625,3.75 6.004,-2.012 8.188,-9.23 4.332,-14.297 -2.031,-2.668 -5.761,-4.058 -9,-3.355 z m 3.914,0.769 c 3.75,0.969 6.317,4.301 6.325,8.207 0,1.868 -0.399,3.2 -1.438,4.75 -1.172,1.758 -3.015,3.047 -5.031,3.539 -1.188,0.286 -3.309,0.223 -4.449,-0.136 -2.891,-0.899 -5.274,-3.461 -5.864,-6.313 -0.917,-4.437 1.77,-8.863 6.106,-10.047 1.019,-0.289 3.273,-0.289 4.351,0 z m -4.593,8.227 0,4.699 1.484,-0.101 c 2.508,-0.122 3.414,-0.887 3.305,-2.801 -0.063,-1.121 -0.375,-1.625 -1.328,-2.114 -0.368,-0.195 -0.649,-0.421 -0.625,-0.511 0.019,-0.102 0.617,-0.973 1.32,-1.961 0.699,-0.985 1.273,-1.821 1.273,-1.863 0,0 -0.296,-0.102 -0.66,-0.102 l -0.66,0 -1.414,2.055 -1.414,2.066 -0.039,-2.066 -0.039,-2.055 -1.199,0 0,4.691 -0.004,0.063 z m 3.136,0.676 c 0.629,0.406 0.813,1.386 0.411,2.175 -0.243,0.461 -0.942,0.747 -1.848,0.747 l -0.492,0 0,-3.352 0.793,0.102 c 0.433,0.101 0.945,0.203 1.136,0.328 z M 0,16.688 l 0,3.39 46.742,0 0,-6.785 -46.742,0 0,3.395 z m 53.293,-3.2 c -0.039,0.102 -0.051,1.614 -0.031,3.352 l 0.043,3.16 74.133,0 -0.102,-0.492 c -0.34,-1.707 -1.66,-5.59 -2.074,-6.113 -0.227,-0.274 -71.864,-0.274 -71.973,0 l 0.004,0.093 z m 80,3.2 0,3.39 33.473,0 0,-6.785 -33.473,0 0,3.395 z m 47.504,-0.196 c -0.613,1.77 -1.145,3.293 -1.18,3.395 -0.051,0.152 1.438,0.191 7.125,0.191 4.086,0 7.168,-0.101 7.141,-0.133 -0.031,-0.101 -0.563,-1.601 -1.184,-3.39 l -1.129,-3.262 -9.66,0 -1.113,3.199 z m 25.844,-3.015 c -0.043,0.113 -0.051,1.625 -0.032,3.363 l 0.043,3.16 33.473,0 0,-6.637 -16.703,0 c -13.465,0 -16.719,0 -16.781,0.157 l 0,-0.043 z M 13.336,26.152 c -0.039,0.102 -0.059,1.645 -0.031,3.422 l 0.043,3.242 20.054,0 0,-6.789 -9.992,0 c -8.019,0 -10.012,0 -10.07,0.153 l -0.004,-0.028 z m 53.379,0 c -0.043,0.102 -0.051,1.645 -0.031,3.422 l 0.039,3.242 19.98,0 0,-6.941 -9.957,0 c -7.93,0 -9.969,0 -10.027,0.195 l -0.004,0.082 z m 39.957,0 c -0.043,0.102 -0.051,1.645 -0.031,3.422 l 0.039,3.242 10.136,0 c 9.793,0 10.141,0 10.286,-0.246 0.25,-0.461 0.925,-4.047 1.023,-5.398 l 0.09,-1.258 -10.731,0 c -8.558,0 -10.75,0 -10.808,0.195 l -0.004,0.043 z m 39.957,0 c -0.039,0.102 -0.051,1.645 -0.031,3.422 l 0.043,3.242 20.054,0 0,-6.789 -9.996,0 c -8.015,0 -10.008,0 -10.066,0.153 l -0.004,-0.028 z m 30.742,0.102 c -0.043,0.141 -0.566,1.656 -1.168,3.351 -0.601,1.696 -1.07,3.137 -1.035,3.211 0.031,0.102 5.246,0.11 11.586,0.11 8.687,0 11.527,-0.102 11.527,-0.184 0,-0.254 -2.136,-6.347 -2.308,-6.57 -0.11,-0.145 -2.161,-0.184 -9.336,-0.184 -8.625,0 -9.199,0 -9.266,0.266 z m 29.27,-0.102 c -0.043,0.102 -0.051,1.645 -0.032,3.422 l 0.043,3.242 20.051,0 0,-6.789 -9.992,0 c -8.016,0 -10.008,0 -10.07,0.153 l 0,-0.028 z M 13.27,42.168 l 0,3.391 20.203,0 0,-6.786 -20.203,0 0,3.395 z m 53.375,0 0,3.391 51.605,0 1.453,-1.473 c 1.328,-1.348 4.391,-4.984 4.391,-5.211 0,-0.102 -12.926,-0.102 -28.723,-0.102 l -28.726,0 0,3.395 z m 79.984,-3.199 c -0.043,0.101 -0.051,1.613 -0.031,3.351 l 0.039,3.168 20.133,0 0,-6.785 -10.036,0 c -7.992,0 -10.043,0 -10.105,0.192 l 0,0.074 z m 25.266,3.004 c -0.61,1.765 -1.141,3.289 -1.176,3.39 -0.051,0.157 3.215,0.196 16,0.196 l 16.066,0 -1.16,-3.391 -1.16,-3.395 -27.465,0 -1.105,3.2 z m 34.746,-3.004 c -0.043,0.101 -0.051,1.613 -0.032,3.351 l 0.043,3.168 20.129,0 0,-6.785 -10.031,0 c -7.996,0 -10.051,0 -10.109,0.192 l 0,0.074 z M 13.371,51.539 C 13.32,51.641 13.27,53.121 13.27,54.93 l 0,3.293 20.21,0 -0.042,-3.352 -0.04,-3.351 -9.964,0 c -5.481,0 -10.008,0 -10.063,0.101 l 0,-0.082 z m 53.375,0 c -0.051,0.102 -0.101,1.582 -0.101,3.391 l 0,3.293 28.722,0 c 15.801,0 28.727,0 28.727,-0.102 0,-0.133 -2.36,-3.016 -3.485,-4.273 -0.613,-0.684 -1.445,-1.512 -1.847,-1.848 l -0.731,-0.605 -25.593,0 c -14.075,0 -25.637,0.101 -25.692,0.101 l 0,0.043 z m 79.918,0 c -0.062,0.102 -0.102,1.582 -0.102,3.391 l 0,3.293 38.102,0 0.945,-2.68 c 0.52,-1.469 0.989,-2.758 1.043,-2.852 0.051,-0.101 0.543,1.086 1.094,2.641 l 1,2.82 38.039,0 -0.043,-3.355 -0.039,-3.352 -20.055,0 -0.07,2.321 -0.074,2.332 -0.734,-2.106 c -0.407,-1.156 -0.797,-2.219 -0.872,-2.363 -0.128,-0.242 -1.152,-0.266 -18.21,-0.266 l -18.075,0 -0.39,1.094 c -0.215,0.605 -0.625,1.738 -0.911,2.527 l -0.519,1.43 -0.102,-4.969 -9.964,0 c -5.477,0 -10.008,0 -10.063,0.102 l 0,-0.008 z M 13.27,67.645 l 0,3.394 20.203,0 0,-6.785 -20.203,0 0,3.391 z m 53.375,0 0,3.394 20.054,0 0,-6.785 -20.054,0 0,3.391 z m 39.957,0 0,3.394 21.488,0 -0.051,-0.91 c -0.051,-1.063 -0.562,-4.109 -0.844,-5.059 l -0.199,-0.664 -20.398,0 0,3.395 0.004,-0.156 z m 40.109,0 0,3.394 33.398,0 1.133,-3.199 c 0.621,-1.758 1.153,-3.281 1.18,-3.395 0.039,-0.152 -3.297,-0.191 -17.832,-0.191 l -17.879,0 0,3.391 z m 45.434,0 1.207,3.394 33.425,0 0,-6.785 -35.839,0 1.207,3.391 z M 0,80.309 l 0,3.394 46.742,0 0,-6.777 -46.742,0 0,3.383 z M 53.328,77.02 c -0.062,0.101 -0.101,1.582 -0.101,3.39 l 0,3.293 72.183,0 0.336,-0.859 c 0.758,-1.942 1.816,-5.344 1.816,-5.836 0,-0.121 -74.113,-0.113 -74.234,0 l 0,0.012 z m 79.965,3.289 0,3.394 42.328,0 1.152,-3.273 c 0.637,-1.809 1.153,-3.332 1.153,-3.391 0,-0.101 -10.043,-0.113 -22.317,-0.113 l -22.316,0 0,3.383 z m 62.273,-3.18 c 0,0.113 0.508,1.617 1.129,3.355 0.621,1.727 1.133,3.157 1.133,3.188 l 42.375,0 -0.039,-3.352 -0.043,-3.355 -22.277,0 c -18.735,0 -22.278,0 -22.278,0.176 l 0,-0.012 z M 0,93.137 l 0,3.383 46.742,0 0,-6.778 -46.742,0 0,3.395 z m 53.262,0 0.039,3.351 25.258,0 c 23.687,0 25.382,0 27.293,-0.277 3.543,-0.481 6.793,-1.461 9.195,-2.777 1.199,-0.657 3.781,-2.403 4.601,-3.122 l 0.602,-0.519 -67.027,0 0.039,3.352 0,-0.008 z m 80.031,0 0,3.39 37.769,0 1.165,-3.238 c 0.644,-1.789 1.171,-3.293 1.171,-3.351 0,-0.102 -9.023,-0.114 -20.05,-0.114 l -20.055,0 0,3.395 0,-0.082 z m 67.898,0 1.207,3.39 37.723,0 0.043,-3.351 0.039,-3.352 -40.219,0 1.207,3.395 0,-0.082 z"
         style="fill:#ffffff;fill-opacity:1;fill-rule:nonzero;stroke:none"
         id="path14" /><path
         d="m 0,4.012 0,3.394 46.742,0 0,-6.785 -46.742,0 0,3.391 z m 53.379,0 0,3.394 33.398,0 c 18.368,0 33.399,0 33.399,-0.121 0,-0.101 -0.594,-0.562 -1.321,-1.113 -4.39,-3.305 -8.05,-4.734 -13.601,-5.328 C 103.562,0.66 98.918,0.629 78.293,0.629 l -24.914,0 0,3.394 0,-0.011 z m 79.949,0 0.039,3.355 33.399,0 0,-6.789 -33.477,0 0.039,3.363 0,0.071 z m 52.965,-3.176 c -0.535,1.43 -2.188,6.266 -2.188,6.406 0,0.156 0.598,0.196 2.641,0.196 2.012,0 2.637,0 2.637,-0.184 0,-0.102 -0.504,-1.617 -1.113,-3.352 -1.043,-2.976 -1.137,-3.168 -1.508,-3.218 -0.227,0 -0.426,0 -0.469,0.152 z m 20.43,3.207 0,3.395 33.324,0 0,-6.786 -33.324,0 0,3.391 z M 255.27,0.816 c -2.739,0.407 -5.36,2.278 -6.668,4.762 -0.75,1.43 -1.016,2.543 -1.016,4.27 0,2.691 0.754,4.519 2.644,6.429 1.247,1.258 2.543,2.035 4.141,2.485 1.031,0.297 3.668,0.254 4.75,-0.102 3.367,-1.004 6.004,-3.906 6.563,-7.195 0.843,-5 -2.446,-9.742 -7.348,-10.621 -1.301,-0.235 -1.832,-0.242 -3.066,-0.102 l 0,0.074 z m 4.078,0.989 c 1.886,0.625 3.261,1.668 4.371,3.324 3.156,4.719 0.969,11.035 -4.449,12.844 -2.997,1.004 -6.282,0.187 -8.586,-2.125 -1.719,-1.727 -2.489,-3.598 -2.493,-6.028 0,-3.222 1.817,-6.144 4.727,-7.586 2.047,-1.011 4.199,-1.152 6.43,-0.429 z m -5.09,8.015 0.039,4.629 1.453,0 c 1.73,0 2.59,-0.39 3.031,-1.269 0.723,-1.442 -0.039,-3.442 -1.426,-3.719 -0.23,0 -0.421,-0.145 -0.421,-0.215 0,-0.101 0.613,-0.98 1.359,-2.023 0.746,-1.032 1.355,-1.922 1.355,-1.961 0,0 -0.293,-0.102 -0.652,-0.102 l -0.656,0 -1.418,2.063 -1.418,2.066 -0.043,-2.066 -0.039,-2.063 -1.203,0 0.043,4.637 -0.004,0.023 z m 2.554,0.489 c 0.704,0.195 1.176,0.789 1.176,1.461 0,1.136 -0.679,1.699 -2.058,1.699 l -0.653,0 0,-3.313 0.489,0 c 0.269,0 0.742,0.102 1.046,0.153 z M 0,16.719 l 0,3.39 46.742,0 0,-6.785 -46.742,0 0,3.395 z m 53.379,0 0,3.39 73.996,0 -0.129,-0.671 c -0.32,-1.731 -1.129,-4.211 -1.793,-5.512 l -0.308,-0.602 -71.766,0 0,3.395 z m 80.016,-3.293 c -0.051,0.101 -0.106,1.574 -0.106,3.383 l 0,3.3 33.477,0 0,-6.785 -16.637,0 c -9.149,0 -16.684,0 -16.738,0.102 l 0.004,0 z m 48.382,0.39 c -0.222,0.532 -2.195,6.141 -2.195,6.235 0,0 3.23,0.101 7.18,0.101 6.718,0 7.172,0 7.078,-0.265 -0.051,-0.145 -0.567,-1.606 -1.141,-3.242 -0.574,-1.645 -1.082,-3.055 -1.133,-3.137 -0.05,-0.102 -1.949,-0.145 -4.839,-0.145 l -4.747,0 -0.203,0.492 0,-0.039 z m 24.946,2.903 0,3.39 33.324,0 0,-6.785 -33.324,0 0,3.395 z M 13.27,29.453 l 0,3.32 20.203,0 0,-6.632 -20.203,0 0,3.312 z m 53.375,0 0,3.32 20.054,0 0,-6.632 -20.054,0 0,3.312 z m 39.957,0 0,3.32 20.496,0 0.16,-0.562 c 0.258,-0.887 0.906,-4.824 0.906,-5.477 l 0,-0.593 -21.562,0 0,3.312 z m 40.109,0 0,3.32 20.055,0 0,-6.632 -20.055,0 0,3.312 z m 30.644,-3.058 c -0.062,0.156 -0.585,1.625 -1.167,3.281 l -1.063,3.015 23.117,0 c 0.031,0 -0.445,-1.511 -1.062,-3.281 l -1.129,-3.219 -9.293,0 c -8.746,0 -9.301,0 -9.403,0.227 l 0,-0.023 z m 29.368,3.058 0,3.32 20.054,0 0,-6.632 -20.054,0 0,3.312 z M 13.27,42.195 l 0,3.395 20.203,0 0,-6.785 -20.203,0 0,3.39 z m 53.375,0 0,3.395 51.605,0 1.453,-1.473 c 1.317,-1.328 3.899,-4.394 4.258,-5.047 0.137,-0.258 -1.27,-0.265 -28.586,-0.265 l -28.73,0 0,3.39 z m 80.066,0 0,3.395 20.055,0 0,-6.785 -20.055,0 0,3.39 z m 25.129,-0.101 c -0.637,1.832 -1.137,3.363 -1.106,3.394 l 32.032,0 -1.149,-3.32 -1.152,-3.324 -27.465,0 -1.16,3.344 0,-0.094 z m 34.883,0.101 0,3.395 20.054,0 0,-6.785 -20.054,0 0,3.39 z M 13.27,54.941 l 0,3.313 20.203,0 0,-6.633 -20.203,0 0,3.32 z m 53.375,0 0,3.313 28.734,0 c 22.945,0 28.711,0 28.621,-0.184 -0.547,-0.929 -4.184,-5.101 -5.203,-5.98 l -0.547,-0.469 -51.605,0 0,3.32 z m 80.066,0 0,3.313 37.957,0 0.941,-2.68 c 0.516,-1.469 0.985,-2.758 1.043,-2.859 0.059,-0.102 0.551,1.082 1.094,2.637 l 0.996,2.828 38.035,0 0,-6.633 -20.047,0 -0.039,2.453 -0.043,2.445 -0.492,-1.351 c -0.273,-0.746 -0.672,-1.848 -0.89,-2.453 l -0.391,-1.094 -36.359,0 -0.836,2.371 -0.836,2.383 -0.043,-2.41 -0.039,-2.414 -20.047,0 0,3.32 -0.004,0.144 z M 13.27,67.676 l 0,3.394 20.128,0 0.043,-3.351 0.039,-3.364 -20.21,0 0,3.391 0,-0.07 z m 53.375,0 0,3.394 20.054,0 0,-6.789 -20.054,0 0,3.395 z m 39.992,0 0.043,3.363 21.336,0 0,-0.766 c 0,-0.98 -0.379,-3.507 -0.731,-4.886 l -0.269,-1.051 -20.418,0 0.043,3.352 -0.004,-0.012 z m 40.074,0 0,3.394 33.398,0 1.168,-3.242 c 0.641,-1.785 1.164,-3.301 1.168,-3.359 0,-0.106 -8.039,-0.114 -17.867,-0.114 l -17.867,0 0,3.391 0,-0.07 z m 44.328,-3.281 c 0,0.101 0.516,1.593 1.152,3.394 l 1.153,3.281 33.433,0 0,-6.789 -17.867,0 c -9.828,0 -17.871,0.106 -17.871,0.114 z M 0,80.34 l 0,3.394 46.742,0 0,-6.777 -46.742,0 0,3.383 z m 53.379,0 0,3.394 72.008,0 0.551,-1.39 c 0.605,-1.543 1.414,-4.18 1.496,-4.875 l 0.05,-0.442 -74.109,0 0,3.395 0.004,-0.082 z m 80.016,-3.293 c -0.051,0.105 -0.106,1.586 -0.106,3.394 l 0,3.293 42.324,0 1.157,-3.273 c 0.636,-1.809 1.156,-3.332 1.156,-3.391 0,-0.144 -44.395,-0.156 -44.535,0 l 0.004,-0.023 z m 62.171,0.113 c 0,0.113 0.508,1.617 1.129,3.352 0.621,1.73 1.133,3.16 1.133,3.191 l 42.219,0 0,-6.777 -22.242,0 c -18.653,0 -22.239,0 -22.239,0.203 l 0,0.031 z M 0,93.164 l 0,3.387 46.742,0 0,-6.778 -46.742,0 0,3.391 z m 53.379,0 0,3.406 25.293,-0.101 c 27.363,-0.106 26.832,0 30.406,-0.879 3.707,-0.871 7.516,-2.793 10.594,-5.367 l 0.578,-0.481 -66.871,0 0,3.422 z m 79.949,0 0.039,3.356 37.695,0 1.168,-3.243 c 0.641,-1.789 1.168,-3.289 1.168,-3.351 0,-0.102 -9.023,-0.114 -20.054,-0.114 l -20.055,0 0.039,3.352 z m 67.863,0 1.207,3.387 37.649,0 0,-6.778 -40.063,0 1.207,3.391 z"
         style="fill:#ffffff;fill-opacity:1;fill-rule:nonzero;stroke:none"
         id="path16" /><path
         d="m 0,4.012 0,3.394 46.668,0 L 46.707,4.055 46.75,0.691 0,0.691 0,4.086 0,4.012 z m 53.379,0 0,3.394 33.398,0 c 18.368,0 33.399,0 33.399,-0.101 0,-0.121 -0.094,-0.196 -1.668,-1.391 C 115.012,3.266 111.426,1.773 106.602,0.969 105.141,0.723 103.035,0.703 79.199,0.652 l -25.82,0 0,3.391 0,-0.031 z m 79.949,0 0.039,3.355 33.324,0 0.043,-3.355 0.039,-3.36 -33.484,0 0.039,3.36 z m 52.961,-3.168 c -0.488,1.34 -2.184,6.347 -2.184,6.461 0,0.101 1.122,0.133 2.641,0.133 1.449,0 2.637,0 2.637,-0.133 0,-0.102 -1.371,-4.098 -2.113,-6.164 -0.133,-0.368 -0.266,-0.489 -0.543,-0.489 -0.204,0 -0.399,0.102 -0.438,0.192 z m 20.434,3.199 0,3.395 33.324,0 0,-6.786 -33.324,0 0,3.391 z M 254.98,0.875 c -3.386,0.633 -6.273,3.344 -7.171,6.715 -0.293,1.105 -0.286,3.414 0.011,4.578 0.528,2.047 2.028,4.141 3.793,5.316 0.473,0.317 1.434,0.766 2.145,1.024 1.695,0.59 3.867,0.64 5.508,0.133 4.543,-1.411 7.3,-6.063 6.336,-10.672 -0.473,-2.25 -2.071,-4.539 -4.059,-5.836 -1.789,-1.156 -4.406,-1.656 -6.566,-1.258 l 0.003,0 z m 3.184,0.605 c 4.277,0.754 7.336,4.68 7.012,8.993 -0.156,2.086 -1.055,3.984 -2.598,5.507 -4.078,4.02 -10.937,2.844 -13.543,-2.32 -0.847,-1.676 -1.097,-4.129 -0.617,-5.988 0.832,-3.188 3.754,-5.774 7.07,-6.266 1.137,-0.164 1.41,-0.152 2.676,0.102 l 0,-0.028 z m -3.906,8.34 0.039,4.629 1.402,0 c 1.684,0 2.606,-0.398 3.067,-1.258 0.781,-1.461 -0.051,-3.445 -1.575,-3.761 l -0.429,-0.102 1.207,-1.687 c 0.664,-0.93 1.32,-1.86 1.461,-2.075 l 0.254,-0.386 -1.332,0 -1.426,2.074 -1.422,2.074 -0.043,-2.074 -0.039,-2.074 -1.203,0 0.043,4.64 -0.004,0 z m 2.738,0.539 c 0.895,0.379 1.227,1.278 0.844,2.282 -0.184,0.488 -0.961,0.828 -1.883,0.828 l -0.68,0 0,-3.313 0.606,0 c 0.336,0 0.836,0.102 1.113,0.203 z M 0,16.719 l 0,3.39 46.742,0 0,-6.785 -46.742,0 0,3.395 z m 53.379,0 0,3.39 73.922,0 -0.078,-0.722 c -0.106,-0.879 -1.039,-3.825 -1.625,-5.121 l -0.426,-0.942 -71.789,0 0,3.395 -0.004,0 z m 79.98,-3.211 c -0.039,0.113 -0.058,1.625 -0.031,3.363 l 0.043,3.156 33.402,0 -0.039,-3.359 -0.043,-3.356 -16.629,0 c -13.398,0 -16.64,0 -16.699,0.157 l -0.004,0.039 z m 48.575,-0.102 c -0.145,0.235 -2.34,6.571 -2.293,6.614 l 14.226,0 -1.152,-3.313 -1.156,-3.32 -4.77,0 c -2.625,0 -4.809,0 -4.855,0.101 l 0,-0.082 z m 24.789,3.27 0,3.394 33.324,0 0,-6.785 -33.324,0 0,3.391 z M 13.27,29.41 l 0,3.324 20.203,0 0,-6.632 -20.203,0 0,3.308 z m 53.375,0 0,3.324 20.054,0 0,-6.632 -20.054,0 0,3.308 z m 39.957,0 0,3.324 20.46,0 0.165,-0.562 c 0.281,-0.953 0.765,-3.672 0.875,-4.906 l 0.105,-1.164 -21.605,0 0,3.308 z m 40.109,0 0,3.324 20.055,0 0,-6.632 -20.055,0 0,3.308 z m 30.68,-3.125 c -0.473,1.266 -2.18,6.211 -2.18,6.317 0,0.101 5.101,0.132 11.535,0.132 6.344,0 11.535,0 11.535,-0.105 0,-0.102 -1.652,-4.801 -2.117,-6.078 l -0.176,-0.492 -9.261,0 c -7.274,0 -9.282,0 -9.336,0.183 l 0,0.043 z m 29.332,3.125 0,3.324 20.054,0 0,-6.632 -20.054,0 0,3.308 z M 13.27,42.156 l 0,3.395 20.128,0 0,-6.645 -20.128,0 0,3.395 0,-0.145 z m 53.375,0 0,3.395 51.437,0 0.68,-0.563 c 0.984,-0.828 5.332,-5.847 5.332,-6.164 0,0 -12.926,-0.101 -28.723,-0.101 l -28.726,0 0,3.433 z m 80.066,0 0,3.395 20.055,0 0,-6.789 -20.055,0 0,3.394 z m 25.199,-0.183 c -0.613,1.757 -1.144,3.281 -1.183,3.382 -0.063,0.153 3.187,0.196 15.925,0.196 12.7,0 16,0 15.996,-0.196 0,-0.101 -0.496,-1.605 -1.105,-3.351 l -1.105,-3.168 -27.415,0 -1.113,3.207 0,-0.07 z m 34.813,0.183 0,3.395 20.054,0 0,-6.789 -20.054,0 0,3.394 z M 13.27,54.902 l 0,3.309 20.203,0 0,-6.633 -20.203,0 0,3.324 z m 53.375,0 0,3.309 57.468,0 -0.347,-0.488 c -0.758,-1.063 -2.664,-3.282 -4.024,-4.672 l -1.433,-1.473 -51.664,0 0,3.324 z m 80.066,0 0,3.309 37.93,0 0.961,-2.746 c 0.531,-1.516 1.011,-2.813 1.066,-2.875 0.062,-0.102 0.363,0.613 0.676,1.504 0.316,0.898 0.773,2.187 1.019,2.871 l 0.446,1.246 37.968,0 0,-6.633 -20.047,0 -0.042,2.527 -0.04,2.524 -0.886,-2.524 -0.887,-2.527 -36.344,0 -0.843,2.414 -0.848,2.41 -0.039,-2.441 -0.043,-2.453 -20.043,0 0,3.32 -0.004,0.074 z m -133.406,12.703 0.039,3.352 20.054,0 0.043,-3.352 0.039,-3.363 -20.214,0 0.039,3.363 z m 53.375,0 0.043,3.352 19.976,0 0,-6.785 -20.058,0 0.043,3.363 -0.004,0.07 z m 39.957,0 0.043,3.352 21.336,0 0,-0.809 c 0,-0.929 -0.496,-4.003 -0.836,-5.179 l -0.231,-0.797 -20.351,0 0.043,3.363 -0.004,0.07 z m 40.074,0 0,3.391 33.383,0 1.168,-3.238 c 0.64,-1.789 1.172,-3.301 1.176,-3.363 0,-0.102 -8.032,-0.114 -17.86,-0.114 l -17.867,0 0,3.395 0,-0.071 z m 44.332,-3.281 c 0,0.153 2.113,6.09 2.285,6.406 0.129,0.258 1.043,0.266 16.754,0.239 l 16.621,0 0.039,-3.356 0.043,-3.359 -17.871,0 c -9.832,0 -17.871,0.101 -17.871,0.109 l 0,-0.039 z M 0,80.27 l 0,3.39 46.75,0 -0.043,-3.351 -0.039,-3.352 -46.668,0 0,3.391 0,-0.078 z m 53.379,0 0,3.39 71.996,0 0.57,-1.418 c 0.563,-1.414 1.399,-4.121 1.493,-4.836 l 0.05,-0.379 -74.109,0 0,3.395 0,-0.152 z m 80.016,-3.293 c -0.051,0.101 -0.106,1.585 -0.106,3.394 l 0,3.289 42.297,0 1.168,-3.281 c 0.644,-1.809 1.168,-3.332 1.168,-3.391 0,-0.133 -44.395,-0.144 -44.531,0 l 0.004,-0.011 z m 62.171,0.101 c 0,0.102 0.516,1.617 1.153,3.395 l 1.152,3.218 42.176,0 0,-6.777 -22.242,0 c -16.043,0 -22.239,0 -22.239,0.164 z M 0,93.125 l 0,3.395 46.668,0 0.039,-3.356 0.043,-3.352 -46.75,0 0,3.395 0,-0.082 z m 53.379,0 0,3.402 25.293,-0.101 c 26.246,-0.102 25.988,-0.102 29.476,-0.715 4.071,-0.766 8.102,-2.699 11.516,-5.531 l 0.586,-0.477 -66.871,0 0,3.422 z m 79.949,0 0.039,3.352 37.68,0 1.168,-3.239 c 0.644,-1.789 1.172,-3.293 1.18,-3.351 0,-0.106 -9.02,-0.114 -20.051,-0.114 l -20.055,0 0.039,3.352 z m 66.762,-3.25 c 0,0.152 2.117,6.102 2.285,6.418 0.129,0.246 1.184,0.258 18.902,0.258 l 18.77,0 0,-6.778 -19.981,0 c -10.988,0 -19.976,0 -19.976,0.102 z"
         style="fill:#ffffff;fill-opacity:1;fill-rule:nonzero;stroke:none"
         id="path18" /><path
         d="m 0,3.941 0,3.321 46.742,0 0,-6.641 -46.742,0 0,3.32 z m 53.379,0 0,3.332 66.848,0 -0.969,-0.765 C 117.609,5.219 116.102,4.27 114.219,3.34 112.168,2.336 110.66,1.816 108.574,1.398 105.238,0.723 105.855,0.734 79.047,0.684 l -25.668,-0.106 0,3.363 z m 80.062,0 0,3.321 33.325,0 0,-6.641 -33.325,0 0,3.32 z m 52.715,-2.675 c -0.332,0.898 -2.051,5.875 -2.051,5.937 0,0 1.188,0.102 2.641,0.102 1.449,0 2.637,0 2.637,-0.102 0,0 -0.508,-1.492 -1.129,-3.262 -0.625,-1.765 -1.133,-3.23 -1.133,-3.257 0,0 -0.164,-0.106 -0.363,-0.106 -0.293,0 -0.414,0.133 -0.602,0.645 l 0,0.043 z m 20.567,2.675 0,3.321 33.324,0 0,-6.641 -33.324,0 0,3.32 z m 47.582,-2.933 c -3.137,0.859 -5.692,3.465 -6.493,6.625 -0.292,1.152 -0.289,3.226 0,4.383 0.809,3.179 3.379,5.796 6.497,6.632 1.074,0.286 3.461,0.317 4.511,0.102 3.528,-0.848 6.227,-3.789 6.825,-7.438 0.21,-1.308 0.21,-1.585 0,-2.863 -0.348,-2.117 -1.055,-3.476 -2.594,-4.996 -1.317,-1.289 -2.504,-1.996 -4.102,-2.402 -1.082,-0.289 -3.617,-0.289 -4.652,0 l 0.008,-0.043 z m 4.062,0.449 c 4.695,0.984 7.719,5.695 6.625,10.313 -0.672,2.875 -2.668,5.058 -5.609,6.164 -1.41,0.531 -3.695,0.562 -5.246,0.101 -6.035,-1.898 -8,-9.484 -3.637,-14.031 2.145,-2.231 4.953,-3.129 7.867,-2.516 l 0,-0.031 z m -3.996,8.289 0,4.602 1.383,0 c 1.777,0 2.523,-0.317 2.98,-1.27 0.395,-0.805 0.395,-1.633 0,-2.441 -0.336,-0.696 -0.742,-1.032 -1.492,-1.227 l -0.484,-0.121 1.34,-1.891 c 0.738,-1.035 1.39,-1.964 1.453,-2.066 0.082,-0.133 -0.059,-0.184 -0.535,-0.184 l -0.649,0 -1.402,2.036 c -0.77,1.113 -1.465,2.023 -1.547,2.023 -0.082,0 -0.145,-0.828 -0.145,-2.035 l 0,-2.035 -0.902,0 0,4.609 z m 2.981,0.695 c 0.718,0.45 0.871,1.809 0.281,2.497 -0.309,0.355 -0.492,0.417 -1.356,0.48 l -1,0.102 0,-3.395 0.879,0.102 c 0.485,0 1.024,0.164 1.196,0.277 l 0,-0.063 z M 0,16.688 l 0,3.39 46.742,0 0,-6.785 -46.742,0 0,3.395 z m 53.379,0 0,3.39 73.883,0 0,-0.344 c 0,-0.593 -0.75,-3.16 -1.403,-4.785 l -0.632,-1.586 -71.848,0 0,3.395 0,-0.07 z m 80.062,0.101 0,3.32 33.325,0 0,-6.64 -33.325,0 0,3.32 z m 47.336,-0.121 c -0.617,1.758 -1.14,3.25 -1.168,3.32 -0.031,0.102 3.145,0.121 7.047,0.121 5.508,0 7.102,0 7.102,-0.183 0,-0.102 -0.492,-1.606 -1.094,-3.321 l -1.094,-3.136 -9.672,0 -1.121,3.199 z m 25.946,0.121 0,3.32 33.324,0 0,-6.64 -33.324,0 0,3.32 z M 13.27,29.453 l 0,3.32 20.054,0 0,-6.632 -20.054,0 0,3.312 z m 53.375,0 0,3.32 20.054,0 0,-6.632 -20.054,0 0,3.312 z m 40.109,0 0,3.32 20.332,0 0.23,-1.023 c 0.313,-1.379 0.649,-3.359 0.778,-4.598 l 0.105,-1.011 -21.445,0 0,3.312 z m 39.957,0 0,3.32 20.055,0 0,-6.632 -20.055,0 0,3.312 z m 30.684,-3.129 c -0.04,0.102 -0.543,1.543 -1.125,3.199 -0.582,1.657 -1.059,3.067 -1.059,3.129 0,0.102 5.191,0.121 11.535,0.121 6.344,0 11.535,0 11.535,-0.101 0,0 -0.511,-1.504 -1.133,-3.27 -0.621,-1.757 -1.128,-3.23 -1.128,-3.261 0,0 -4.176,-0.102 -9.278,-0.102 -7.289,0 -9.293,0 -9.347,0.184 l 0,0.101 z m 29.328,3.129 0,3.32 20.054,0 0,-6.632 -20.054,0 0,3.312 z M 13.27,42.195 l 0,3.395 20.054,0 0,-6.785 -20.054,0 0,3.39 z m 53.375,0 0,3.395 51.386,0 0.731,-0.602 c 1.039,-0.859 3.426,-3.566 4.949,-5.621 l 0.418,-0.562 -57.484,0 0,3.39 z m 80.066,0 0,3.395 20.055,0 0,-6.785 -20.055,0 0,3.39 z m 26.324,-3.257 c -0.043,0.101 -0.555,1.48 -1.129,3.124 -0.578,1.649 -1.094,3.118 -1.152,3.262 -0.09,0.254 0.723,0.266 15.898,0.266 12.703,0 15.996,0 15.993,-0.195 0,-0.102 -0.504,-1.602 -1.11,-3.352 l -1.097,-3.168 -13.661,0 c -7.929,0 -13.695,0 -13.742,0.102 l 0,-0.039 z m 33.688,3.257 0,3.395 20.054,0 0,-6.785 -20.054,0 0,3.39 z M 13.27,54.941 l 0,3.313 20.054,0 0,-6.633 -20.054,0 0,3.32 z m 53.375,0 0,3.313 28.742,0 c 22.972,0 28.715,0 28.601,-0.184 -1.328,-1.75 -2.968,-3.672 -4.187,-4.906 l -1.52,-1.543 -51.636,0 0,3.32 z m 80.066,0 0,3.313 37.922,0 1.043,-2.953 1.039,-2.965 1.051,2.965 1.054,2.953 37.957,0 0,-6.633 -20.047,0 -0.042,2.524 -0.04,2.523 -1.804,-5.047 -36.305,0 -0.879,2.492 -0.875,2.485 0,-5.051 -20.055,0 0,3.324 -0.019,0.07 z M 13.27,67.605 l 0,3.313 20.054,0 0,-6.637 -20.054,0 0,3.324 z m 53.375,0 0,3.313 20.054,0 0,-6.637 -20.054,0 0,3.324 z m 40.109,0 0,3.313 21.262,0 0,-0.543 c 0,-0.656 -0.411,-3.508 -0.621,-4.355 -0.083,-0.336 -0.219,-0.86 -0.301,-1.165 l -0.145,-0.574 -20.195,0 0,3.324 z m 39.957,0 0,3.313 33.406,0 1.106,-3.117 c 0.609,-1.719 1.14,-3.211 1.183,-3.324 0.059,-0.153 -3.25,-0.196 -17.808,-0.196 l -17.887,0 0,3.324 z m 44.332,-3.23 c 0,0.102 0.516,1.543 1.152,3.32 l 1.149,3.223 33.433,0 0,-6.637 -17.867,0 c -9.828,0 -17.867,0 -17.867,0.106 l 0,-0.012 z M 0,80.422 l 0,3.312 46.742,0 0,-6.636 -46.742,0 0,3.324 z m 53.379,0 0,3.312 71.937,0 0.352,-0.789 c 0.469,-1.074 1.559,-4.433 1.684,-5.211 l 0.101,-0.636 -74.074,0 0,3.324 z m 80.062,0 0,3.312 42.145,0 1.133,-3.191 c 0.621,-1.758 1.152,-3.25 1.179,-3.313 0.032,-0.101 -9.964,-0.132 -22.203,-0.132 l -22.254,0 0,3.324 z m 62.161,-3.129 c 0.039,0.102 0.566,1.594 1.175,3.312 l 1.11,3.129 42.16,0 0,-6.636 -22.258,0 c -17.738,0 -22.242,0 -22.187,0.195 z M 0,93.086 l 0,3.32 46.742,0 0,-6.633 -46.742,0 0,3.313 z m 53.379,0 0,3.32 24.937,0 c 15.809,0 25.512,-0.101 26.5,-0.152 4.723,-0.473 8.551,-1.707 11.848,-3.856 1.285,-0.828 3.512,-2.46 3.512,-2.574 l -66.797,0 0,3.313 0,-0.051 z m 80.062,0 0,3.32 37.621,0 1.133,-3.179 c 0.621,-1.747 1.153,-3.239 1.18,-3.321 0.031,-0.101 -7.871,-0.133 -19.941,-0.133 l -19.993,0 0,3.313 z m 66.649,-3.231 c 0,0.102 0.515,1.543 1.152,3.321 l 1.153,3.23 37.652,0 0,-6.633 -19.981,0 c -10.988,0 -19.976,0 -19.976,0.102 l 0,-0.02 z"
         style="fill:#ffffff;fill-opacity:1;fill-rule:nonzero;stroke:none"
         id="path20" /><path
         d="m 0,3.941 0,3.321 46.742,0 0,-6.641 -46.742,0 0,3.32 z m 53.379,0 0,3.332 66.848,0 -0.895,-0.703 C 116.086,4.023 112.461,2.234 109.016,1.488 105.406,0.691 106.672,0.734 79.047,0.672 L 53.379,0.57 l 0,3.371 z m 80.062,0 0,3.321 33.325,0 0,-6.641 -33.325,0 0,3.32 z M 186.367,0.66 c 0,0 -0.508,1.492 -1.129,3.274 -0.621,1.777 -1.133,3.25 -1.133,3.277 l 2.657,0 c 2.465,0 2.648,0 2.55,-0.266 -0.058,-0.14 -0.582,-1.633 -1.164,-3.32 -0.98,-2.809 -1.093,-3.055 -1.425,-3.055 l -0.356,0 0,0.09 z m 20.356,3.281 0,3.321 33.324,0 0,-6.641 -33.324,0 0,3.32 z M 254.371,1.02 c -2.883,0.753 -5.473,3.168 -6.344,5.898 -0.449,1.41 -0.558,3.719 -0.234,5.016 0.809,3.23 3.383,5.878 6.516,6.714 1.441,0.379 3.668,0.317 5.117,-0.152 4.879,-1.562 7.496,-6.758 5.863,-11.641 -0.902,-2.699 -3.519,-5.109 -6.34,-5.835 -1.152,-0.297 -3.453,-0.297 -4.578,0 z m 3.996,0.437 c 4.695,0.984 7.719,5.695 6.625,10.313 -0.734,3.128 -3.297,5.683 -6.437,6.418 -2.672,0.636 -5.739,-0.215 -7.746,-2.145 -3.614,-3.465 -3.606,-8.941 0.023,-12.387 2.133,-2.023 4.742,-2.789 7.535,-2.199 z m -3.996,8.313 0,4.609 1.547,-0.106 c 1.82,-0.101 2.371,-0.316 2.828,-1.265 0.715,-1.481 -0.039,-3.363 -1.453,-3.629 -0.281,-0.102 -0.508,-0.121 -0.508,-0.152 0,0 0.645,-0.95 1.434,-2.055 l 1.437,-2.004 -0.633,0 c -0.41,0 -0.675,0 -0.75,0.152 -0.433,0.746 -2.668,3.805 -2.816,3.856 -0.137,0 -0.18,-0.461 -0.18,-1.992 l 0,-2.047 -0.906,0 0,4.633 z m 2.613,0.5 c 0.68,0.253 1.004,0.753 1.004,1.531 0,1.113 -0.437,1.535 -1.711,1.617 l -1,0.102 0,-3.352 0.668,0 c 0.367,0 0.836,0.102 1.039,0.141 l 0,-0.039 z M 0,16.688 l 0,3.39 46.668,0 0,-6.633 -46.668,0 0,3.395 0,-0.152 z m 53.379,0 0,3.39 73.883,0 0,-0.367 c 0,-0.551 -0.965,-3.77 -1.539,-5.141 l -0.508,-1.207 -71.836,0 0,3.395 0,-0.07 z m 80.062,0.101 0,3.32 33.25,0 0.039,-3.281 0.043,-3.277 -33.328,0 0,3.32 -0.004,-0.082 z m 47.379,-0.184 c -0.601,1.715 -1.09,3.207 -1.09,3.313 0,0.152 1.508,0.191 7.024,0.191 6.609,0 7.019,0 6.976,-0.265 -0.031,-0.141 -0.523,-1.633 -1.105,-3.321 l -1.055,-3.054 -9.66,0 -1.09,3.136 z m 25.903,0.184 0,3.32 33.324,0 0,-6.64 -33.324,0 0,3.32 z M 13.27,29.453 l 0,3.32 20.054,0 0,-6.632 -20.054,0 0,3.312 z m 53.375,0 0,3.32 20.054,0 0,-6.632 -20.054,0 0,3.312 z m 40.109,0 0,3.32 20.332,0 0.23,-1.023 c 0.313,-1.379 0.649,-3.359 0.778,-4.598 l 0.105,-1.011 -21.445,0 0,3.312 z m 39.957,0 0,3.32 20.055,0 0,-6.632 -20.055,0 0,3.312 z m 30.684,-3.129 c -0.614,1.727 -2.184,6.305 -2.184,6.367 0,0 5.195,0.102 11.551,0.102 9.179,0 11.535,0 11.476,-0.191 -0.039,-0.106 -0.562,-1.598 -1.168,-3.313 l -1.097,-3.129 -9.254,0 c -7.27,0 -9.27,0 -9.324,0.184 l 0,-0.02 z m 29.328,3.129 0,3.32 20.054,0 0,-6.632 -20.054,0 0,3.312 z M 13.336,38.996 c -0.039,0.106 -0.051,1.617 -0.031,3.356 l 0.043,3.168 19.976,0 0,-6.79 -9.957,0 c -7.933,0 -9.969,0 -10.027,0.196 l -0.004,0.07 z m 53.379,0 c -0.043,0.106 -0.051,1.617 -0.031,3.356 l 0.039,3.168 51.297,0 c 0.613,-0.157 3.691,-3.477 5.691,-6.153 l 0.422,-0.562 -28.672,0 c -23.106,0 -28.684,0 -28.742,0.191 l -0.004,0 z m 79.996,3.199 0,3.395 19.98,0 0,-6.645 -19.98,0 0,3.395 0,-0.145 z m 26.219,-2.984 c -0.481,1.238 -2.094,5.992 -2.094,6.176 0,0.172 2.488,0.203 15.91,0.203 8.996,0 15.906,-0.102 15.906,-0.133 0,-0.102 -0.5,-1.586 -1.113,-3.352 l -1.113,-3.23 -27.332,0 -0.164,0.41 0,-0.074 z m 33.793,2.984 0,3.395 19.98,0 0,-6.645 -19.98,0 0,3.395 0,-0.145 z M 13.27,54.941 l 0,3.313 20.054,0 0,-6.633 -20.054,0 0,3.32 z m 53.375,0 0,3.313 57.476,0 -0.793,-1.012 c -1.422,-1.84 -2.805,-3.414 -3.953,-4.527 l -1.129,-1.094 -51.601,0 0,3.32 z m 80.066,0 0,3.313 37.922,0 0.883,-2.524 c 0.484,-1.39 0.957,-2.718 1.054,-2.945 0.164,-0.398 0.239,-0.234 1.215,2.524 l 1.039,2.945 37.953,0 0,-6.633 -20.054,0 -0.008,2.524 c -0.012,2.914 0.039,2.933 -1.145,-0.45 l -0.722,-2.074 -36.239,0 -0.394,1.094 c -0.215,0.601 -0.625,1.734 -0.91,2.523 l -0.52,1.43 0,-5.047 -20.055,0 0,3.32 -0.019,0 z M 13.27,67.605 l 0,3.313 20.054,0 0,-6.637 -20.054,0 0,3.324 z m 53.375,0 0,3.313 20.054,0 0,-6.637 -20.054,0 0,3.324 z m 40.109,0 0,3.313 21.305,0 -0.102,-1.227 c -0.105,-1.226 -0.516,-3.57 -0.84,-4.773 l -0.168,-0.637 -20.195,0 0,3.324 z m 39.957,0 0,3.313 33.398,0 1.133,-3.191 c 0.621,-1.747 1.153,-3.239 1.18,-3.313 0.031,-0.102 -7.996,-0.133 -17.828,-0.133 l -17.883,0 0,3.324 z m 44.363,-3.128 c 0.031,0.101 0.563,1.593 1.172,3.312 l 1.102,3.129 33.429,0 0,-6.637 -17.882,0 c -14.243,0 -17.872,0 -17.821,0.196 z M 0,80.422 l 0,3.312 46.742,0 0,-6.636 -46.742,0 0,3.324 z m 53.379,0 0,3.312 71.914,0 0.227,-0.441 c 0.339,-0.652 1.71,-4.836 1.832,-5.559 l 0.101,-0.636 -74.074,0 0,3.324 z m 80.062,0 0,3.32 42.145,0 0.402,-1.133 c 0.219,-0.613 0.746,-2.097 1.164,-3.273 l 0.762,-2.156 -44.473,0 0,3.324 0,-0.082 z m 62.161,-3.129 c 0.043,0.102 0.57,1.594 1.183,3.312 l 1.117,3.129 42.145,0 0,-6.636 -22.258,0 c -17.742,0 -22.242,0 -22.187,0.195 z M 0,93.086 l 0,3.32 46.742,0 0,-6.633 -46.742,0 0,3.313 z m 53.379,0 0,3.32 24.84,0 c 15.5,0 25.465,-0.101 26.5,-0.152 6.168,-0.574 10.051,-2.168 15.297,-6.297 0.183,-0.145 -6.891,-0.184 -33.204,-0.184 l -33.433,0 0,3.313 z m 80.062,0 0,3.32 37.621,0 1.133,-3.187 c 0.621,-1.75 1.153,-3.242 1.18,-3.313 0.031,-0.101 -8.945,-0.125 -19.941,-0.125 l -19.993,0 0,3.313 0,-0.008 z m 66.68,-3.129 c 0.031,0.102 0.563,1.594 1.172,3.32 l 1.102,3.129 37.652,0 0,-6.633 -19.996,0 c -15.93,0 -19.981,0 -19.93,0.184 z"
         style="fill:#ffffff;fill-opacity:1;fill-rule:nonzero;stroke:none"
         id="path22" /><path
         d="m 375.422,1.09 c 0,0.23 4.965,11.969 11.035,26.144 6.504,15.192 11.699,26.512 12.656,27.543 0.942,1.016 3.024,2.145 4.957,2.703 3.012,0.872 3.575,0.872 5.754,0 1.332,-0.519 16.078,-9.414 32.774,-19.757 16.695,-10.344 30.625,-18.801 30.957,-18.801 0.332,0 1.59,2.312 2.793,5.16 1.207,2.856 4.808,11.359 8.007,18.934 3.196,7.57 6.083,14.121 6.407,14.539 0.66,0.879 15.797,1.16 16.289,0.336 0.363,-0.641 -19.266,-46.977 -21.977,-51.93 -2.469,-4.473 -9.363,-6.59 -13.89,-4.266 -0.993,0.532 -15.129,9.266 -31.414,19.457 -16.29,10.176 -29.868,18.571 -30.176,18.618 -0.309,0 -4.301,-8.625 -8.871,-19.29 l -8.305,-19.39 -8.5,-0.242 c -4.672,0 -8.496,0 -8.496,0.242 z m 119.066,0.449 c -0.804,0.375 -1.711,1.672 -2.105,2.965 -0.653,2.191 -0.254,3.394 8.179,24.594 8.145,20.472 9.071,22.472 11.403,24.566 4.601,4.176 1.883,3.969 53.926,4.106 26.066,0 47.527,0 47.695,-0.243 0.164,-0.23 -0.797,-2.941 -2.141,-6.168 l -2.453,-5.886 -44.625,-0.313 -44.625,-0.328 -1.668,-4.375 -1.664,-4.391 37.778,-0.234 c 20.781,0 37.781,-0.391 37.781,-0.68 0,-0.261 -0.957,-2.871 -2.133,-5.773 l -2.129,-5.274 -30.57,-0.23 -30.571,-0.242 -5.449,4.383 c -3,2.402 -5.672,4.379 -5.945,4.379 -0.453,0 -7.707,-17.833 -7.699,-18.915 0,-0.261 19.859,-0.472 44.129,-0.472 24.269,0 44.121,0 44.121,-0.231 0,-0.238 -1.098,-2.902 -2.438,-6.129 L 590.844,0.801 543.371,0.57 c -33.242,0 -47.894,0 -48.883,0.559 l 0,0.41 z m 166.637,11.75 c -6.875,6.879 -12.746,12.512 -13.039,12.512 -1.141,0 -16.527,-16.184 -19.188,-20.184 l -2.808,-4.222 -29.199,0 1.23,1.718 c 4.055,5.703 24.973,24.153 34.207,30.153 2.754,1.8 5.059,3.328 5.125,3.39 0.067,0 -4.351,4.77 -9.828,10.442 -5.473,5.679 -9.965,10.535 -9.977,10.793 0,0.254 4.832,0.461 10.762,0.461 l 10.778,0 6.156,-6.454 6.152,-6.457 11.039,5.52 c 6.07,3.016 13.024,6.242 15.453,7.16 2.43,0.922 7.332,2.922 10.895,4.434 12.703,5.414 38.523,13.191 55.797,16.789 17.285,3.609 42.922,7.488 59.875,9.051 23.273,2.167 28.773,2.453 46.05,2.472 13.598,0 16.743,0.231 16.743,0.871 0,0.992 -1.453,2.336 -4.071,3.801 l -1.875,1.031 3.129,-0.379 c 6.821,-0.847 26.672,-5.046 28.633,-6.031 2.289,-1.176 1.039,-2.215 -4.695,-3.91 -3.18,-0.945 -6.492,-1.977 -7.356,-2.281 -4.543,-1.625 -16.269,-3.657 -16.269,-2.809 0,0.235 0.703,1.32 1.562,2.594 2.969,4.375 3.422,4.262 -14.238,3.816 C 828.801,87 810.367,85.258 783.793,81.113 750.996,76 719.457,66.578 691.852,53.664 680.676,48.418 661.207,36.875 661.609,35.723 c 0.063,-0.243 5.004,-5.379 10.942,-11.426 l 10.801,-11.008 111.847,0 1.965,4.664 c 1.082,2.594 1.965,4.969 1.965,5.328 0,0.426 -13.531,0.657 -41.152,0.657 -39.559,0 -41.207,0 -42.707,1.199 -2.657,2.047 -2.133,5.656 2.421,16.73 4.239,10.293 6.313,13.176 10.977,15.285 2.414,1.114 5.144,1.153 49.547,1.184 25.844,0 47.148,-0.231 47.344,-0.328 0.191,-0.238 -0.778,-3.16 -2.157,-6.574 l -2.515,-6.223 -88.797,0 -1.528,-3.457 c -0.843,-1.914 -1.531,-3.719 -1.531,-4.059 0,-0.375 15.969,-0.66 41.364,-0.773 l 41.359,-0.234 1.578,-1.84 c 1.266,-1.453 1.516,-2.286 1.262,-4.176 -0.297,-2.231 -6.239,-17.734 -8.606,-22.469 -1.312,-2.617 -5.515,-6.121 -8.293,-6.93 C 796.543,0.945 769.824,0.688 734.66,0.688 l -61.027,0 -12.508,12.531 0,0.07 z M 852.328,1.227 c 0,0.238 2.145,5.918 4.766,12.582 l 4.761,12.113 -2.73,2.918 c -1.504,1.601 -6.441,6.715 -10.977,11.351 -11.101,11.379 -16.449,17.129 -16.464,17.7 0,0.254 4.707,0.461 10.472,0.461 l 10.485,0 10.011,-10.336 c 5.508,-5.704 10.258,-10.368 10.555,-10.344 0.297,0 5.508,2.754 11.578,6.144 6.07,3.395 14.434,8.032 18.574,10.344 l 7.539,4.176 10.145,0 c 5.668,0 10.141,-0.262 10.141,-0.59 0,-0.312 -2.321,-1.832 -5.164,-3.367 -2.836,-1.563 -11.086,-6.168 -18.329,-10.25 -7.242,-4.047 -17.425,-9.801 -22.632,-12.719 -10.758,-6.058 -9.106,-3.914 -14.879,-19.09 -1.575,-4.117 -3.274,-8.422 -3.774,-9.535 l -0.918,-2.047 -6.578,0 c -3.621,0 -6.582,0.239 -6.582,0.473 l 0,0.016 z m 57.578,0.238 c 0,0.305 1.02,3.137 2.266,6.25 l 2.273,5.672 44.481,0.23 44.484,0.238 2.035,5.02 2.035,5 -41.574,0.293 -41.57,0.328 -1.414,1.426 c -2.16,2.144 -1.699,4.945 2.605,15.785 3.371,8.504 4.223,10.055 6.836,12.629 1.782,1.715 3.973,3.176 5.442,3.578 2.851,0.801 95.133,1.008 95.617,0.231 0.164,-0.254 -0.754,-3.137 -2.039,-6.407 l -2.332,-5.937 -44.473,-0.231 -44.473,-0.242 -1.644,-3.789 c -0.902,-2.082 -1.645,-3.914 -1.645,-4.051 0,-0.238 18.567,-0.328 41.258,-0.422 l 41.258,-0.242 1.613,-1.512 c 1.133,-1.078 1.614,-2.16 1.614,-3.687 0,-1.887 -4.235,-13.457 -8.102,-22.152 -1.527,-3.414 -5.574,-7.137 -8.754,-8.008 -2.898,-0.801 -95.797,-0.848 -95.797,0 z"
         style="fill:#ffffff;fill-opacity:1;fill-rule:nonzero;stroke:none"
         id="path24" /><path
         d="m 1322.102,96.57 c -3.774,0 -6.848,-2.945 -6.848,-6.722 l 0,-36.032 c -3.492,6.426 -11.008,10.778 -19.953,10.778 -18.16,0 -30.289,-13.746 -30.289,-32.039 0,-18.313 12.547,-31.977 30.289,-31.977 7.918,0 14.754,3.289 18.859,8.969 l 1.531,-3.859 c 0.942,-2.653 3.516,-4.52 6.481,-4.52 3.758,0 6.773,3 6.773,6.785 l 0,81.832 c 0,3.77 -3.074,6.711 -6.843,6.711 l 0,0.074 z m -139.45,-0.168 c -14.148,0 -25.632,-11.48 -25.632,-25.64 l 0,-8.016 -8.375,0 c -3.075,0 -5.606,-2.519 -5.606,-5.601 0,-3.063 2.531,-6.184 5.606,-6.184 l 8.375,0 0,-42.969 c 0,-3.765 3.074,-6.847 6.843,-6.847 3.774,0 6.844,3.082 6.844,6.847 l 0,42.969 9.25,0 c 3.074,0 5.605,3.121 5.605,6.184 0,3.082 -2.531,5.601 -5.605,5.601 l -9.25,0 0,8.016 c 0,6.609 5.348,12.824 11.945,12.824 0.594,0 1.231,0 1.821,-0.168 3.738,-0.543 7.234,1.16 7.789,4.894 0.55,3.739 -2.082,7.153 -5.824,7.704 -1.25,0.187 -2.524,0.304 -3.786,0.304 l 0,0.082 z m 40.196,-31.832 c -17.746,0 -31.532,-14.304 -31.532,-32.023 0,-17.762 14.227,-31.977 31.969,-31.977 9.777,0 19.692,4.207 25.559,10.481 1.258,1.254 1.965,2.91 1.965,4.429 0,1.137 -0.391,2.243 -1.09,3.208 -1.117,1.394 -2.84,2.265 -4.516,2.265 -1.258,0 -2.371,-0.238 -3.351,-1.23 -4.891,-4.739 -11.004,-7.723 -18.133,-7.723 -10.059,0 -17.578,7.035 -18.274,16.379 l 43.11,0 c 2.652,0 5.093,1.781 5.093,4.437 0,18.032 -13.199,31.754 -30.8,31.754 z m 149.132,0 c -17.742,0 -32.039,-14.304 -32.039,-32.023 0,-17.762 14.297,-31.977 32.039,-31.977 17.747,0 31.969,14.215 31.969,31.977 0,17.719 -14.222,32.023 -31.969,32.023 z m 78.137,0 c -9.375,0 -15.57,-2.793 -21.047,-9.746 l -0.511,3.266 c -0.422,3.375 -3.278,5.984 -6.77,5.984 -3.785,0 -6.844,-3.066 -6.844,-6.855 l 0,-49.145 c 0,-3.785 3.071,-6.855 6.844,-6.855 3.773,0 6.844,3.07 6.844,6.855 l 0,26.344 c 0,12.023 10.445,18.062 21.484,18.062 3.352,0 6.043,2.754 6.043,6.122 0,3.343 -2.691,6.039 -6.043,6.039 l 0,-0.071 z m 40.266,0 c -17.742,0 -32.11,-14.304 -32.11,-32.023 0,-17.762 13.969,-31.977 30.872,-31.977 8.441,0 15.984,4.344 19.371,8.895 l 1.675,-4.238 c 0.895,-2.387 3.207,-4.082 5.899,-4.082 3.469,0 6.258,2.8 6.262,6.273 l 0,25.129 c 0.152,17.168 -12.129,32.023 -31.969,32.023 z M 1222.848,53.059 c 9.218,0 15.925,-6.539 17.187,-15.075 l -34.375,0 c 1.399,8.946 7.828,15.075 17.188,15.075 z m 74.129,-0.649 c 11.179,0 18.277,-8.555 18.277,-19.863 0,-11.328 -7.098,-19.817 -18.277,-19.817 -11.176,0 -18.278,8.903 -18.278,19.817 0,10.871 7.102,19.863 18.278,19.863 z m 75.003,0 c 11.176,0 18.426,-8.992 18.426,-19.863 0,-10.914 -7.25,-19.817 -18.426,-19.817 -11.175,0 -18.496,8.903 -18.496,19.817 0,10.871 7.321,19.863 18.496,19.863 z m 118.403,0 c 11.179,0 18.426,-8.992 18.426,-19.863 0,-10.914 -7.247,-19.817 -18.426,-19.817 -11.176,0 -18.422,8.903 -18.422,19.817 0,10.871 7.246,19.863 18.422,19.863 z m 33.793,-42.512 0,-0.433 0.726,0 0,-2.121 0.438,0 0,2.121 0.726,0 0,0.433 -1.89,0 z m 2.254,0 0,-2.554 0.437,0 0,1.601 0.063,-0.215 0.656,-1.472 0.582,1.472 0.148,0.215 0,-1.601 0.368,0 0,2.554 -0.438,0 -0.508,-1.328 -0.152,-0.359 -0.148,0.359 -0.583,1.328 -0.437,0 0.012,0 z"
         style="fill:#ffffff;fill-opacity:1;fill-rule:nonzero;stroke:none"
         id="path26" /><path
         d="m 1708.766,5.613 c -6.633,2.754 -12.204,5.719 -12.375,6.567 -0.172,0.84 0.367,4.89 1.199,8.988 l 1.512,7.469 12.3,0.34 12.301,0.324 0,-3.485 c 0,-3.461 -0.043,-3.484 -6.355,-3.484 -4.766,0 -6.532,-0.457 -7.063,-1.84 -0.992,-2.594 1.617,-3.867 7.961,-3.89 l 5.457,0 0,-8.047 c 0,-5.688 -0.422,-8.02 -1.437,-7.985 -0.789,0 -6.864,2.297 -13.5,5.055 l 0,-0.012 z m -63.692,11.231 c -2.402,3.418 -2.254,5.738 0.59,9.344 2.996,3.812 8.078,4.031 11.359,0.523 4.899,-5.273 1.614,-12.438 -5.699,-12.438 -3.308,0 -4.926,0.665 -6.25,2.571 z m 31.528,2.199 c -6.004,2.582 -11.118,4.879 -11.364,5.109 -0.25,0.227 -1.402,6.762 -2.566,14.516 -1.168,7.758 -2.395,15.273 -2.734,16.687 -0.407,1.711 -0.086,2.583 0.933,2.583 2.176,0 38.707,-20.727 38.707,-21.958 0,-0.554 -0.758,-1.015 -1.683,-1.015 -2.391,0 -3.946,-3.461 -5.559,-12.352 -0.938,-5.183 -1.965,-7.82 -3.109,-7.992 -0.942,-0.152 -6.625,1.84 -12.625,4.422 z m -32.747,15.148 c -1.41,6.145 -6,39.344 -5.543,40.129 0.282,0.457 3.055,0.86 6.168,0.86 4.922,0 5.731,-0.336 6.243,-2.602 1.425,-6.23 6.164,-39.332 5.699,-39.789 -0.281,-0.285 -3.094,-0.644 -6.25,-0.816 -5.07,-0.243 -5.805,0 -6.317,2.211 l 0,0.007 z m 72.165,2.161 c -1.051,1.339 -3.813,18.035 -3.809,23.023 0,1.656 1.047,2.016 5.785,2.016 l 5.781,0 -0.324,-12.93 -0.324,-12.918 -2.973,-0.348 c -1.633,-0.183 -3.496,0.328 -4.136,1.157 z m -14.536,5.433 c -7.972,4.684 -8.445,5.336 -5.89,8.156 1.457,1.614 2.105,3.903 1.984,6.985 l -0.183,4.594 4.175,-0.348 c 3.508,-0.305 4.313,-0.883 5.059,-3.692 1.492,-5.621 2.5,-19.07 1.426,-19.007 -0.555,0 -3.512,1.527 -6.571,3.312 z m -26.246,15.074 c -6.593,3.442 -6.422,4.532 0.719,4.532 6.688,0 7.832,-1.121 4.949,-4.879 -1.316,-1.711 -1.781,-1.688 -5.668,0.347 z m -17.058,12.637 c -2.981,5.563 -2.379,5.684 32.816,5.684 l 32.852,0 -0.36,-3.735 -0.359,-3.738 -31.832,-0.305 c -31.285,-0.304 -31.852,-0.261 -33.117,2.102 l 0,-0.008 z m -1.692,12.578 c -0.406,0.664 -1.031,4.02 -1.386,7.485 l -0.653,6.285 69.363,0 -0.343,-7.18 -0.34,-7.168 -32.949,-0.305 c -21.914,-0.207 -33.2,0.11 -33.692,0.895 l 0,-0.012 z"
         style="fill:#ffffff;fill-opacity:1;fill-rule:nonzero;stroke:none"
         id="path28" /><path
         d="m 1766.086,66.113 c -0.938,-0.679 -2.137,-1.164 -3.594,-1.453 -1.449,-0.289 -2.937,-0.437 -4.469,-0.437 -1.843,0 -3.593,0.281 -5.25,0.843 -1.656,0.571 -3.117,1.493 -4.375,2.766 -1.261,1.281 -2.265,2.941 -3.015,4.984 -0.75,2.039 -1.125,4.516 -1.125,7.422 0,3.02 0.414,5.547 1.25,7.578 0.844,2.039 1.93,3.68 3.265,4.922 1.332,1.25 2.817,2.145 4.454,2.688 1.644,0.551 3.289,0.828 4.937,0.828 1.758,0 3.25,-0.121 4.469,-0.359 1.219,-0.231 2.222,-0.508 3.015,-0.829 l -1.187,-5.109 c -0.68,0.32 -1.481,0.555 -2.406,0.703 -0.93,0.145 -2.047,0.219 -3.36,0.219 -2.437,0 -4.398,-0.867 -5.875,-2.594 -1.48,-1.73 -2.218,-4.414 -2.218,-8.047 0,-1.586 0.171,-3.031 0.515,-4.343 0.352,-1.305 0.891,-2.418 1.61,-3.344 0.718,-0.918 1.613,-1.637 2.687,-2.156 1.07,-0.512 2.313,-0.766 3.719,-0.766 1.32,0 2.437,0.129 3.344,0.391 0.906,0.269 1.695,0.609 2.375,1.015 l 1.234,-4.922 z m 19.879,0.61 c -0.887,-0.7 -2.086,-1.293 -3.594,-1.782 -1.512,-0.476 -3.117,-0.718 -4.812,-0.718 -3.555,0 -6.153,1.031 -7.797,3.093 -1.637,2.071 -2.453,4.911 -2.453,8.516 0,3.875 0.921,6.773 2.765,8.703 1.852,1.938 4.453,2.906 7.797,2.906 1.113,0 2.195,-0.148 3.25,-0.437 1.063,-0.293 2,-0.777 2.813,-1.453 0.82,-0.668 1.484,-1.574 1.984,-2.719 0.5,-1.148 0.75,-2.57 0.75,-4.266 0,-0.625 -0.039,-1.293 -0.109,-2 -0.075,-0.699 -0.184,-1.429 -0.329,-2.187 l -13.203,0 c 0.082,-1.844 0.555,-3.242 1.422,-4.188 0.875,-0.937 2.274,-1.406 4.203,-1.406 1.207,0 2.286,0.18 3.235,0.547 0.957,0.375 1.687,0.75 2.187,1.125 l 1.891,-3.734 z m -8.188,16.156 c -1.492,0 -2.593,-0.449 -3.312,-1.344 -0.719,-0.898 -1.156,-2.094 -1.313,-3.594 l 8.188,0 c 0.113,1.582 -0.133,2.801 -0.735,3.657 -0.593,0.851 -1.539,1.281 -2.828,1.281 z m 26.621,-18.047 0,12.5 c 0,1.789 -0.257,3.082 -0.765,3.875 -0.512,0.789 -1.387,1.188 -2.625,1.188 -1.086,0 -2,-0.321 -2.75,-0.954 -0.742,-0.636 -1.274,-1.421 -1.594,-2.359 l 0,-14.25 -5.719,0 0,22 4.532,0 0.656,-2.906 0.172,0 c 0.675,0.937 1.57,1.754 2.687,2.453 1.113,0.707 2.551,1.062 4.313,1.062 1.082,0 2.047,-0.148 2.89,-0.437 0.852,-0.293 1.571,-0.777 2.157,-1.453 0.593,-0.668 1.035,-1.586 1.328,-2.75 0.289,-1.156 0.437,-2.586 0.437,-4.281 l 0,-13.688 -5.719,0 z m 8.473,22 3.031,0 0,4.141 5.719,1.625 0,-5.766 5.375,0 0,-4.844 -5.375,0 0,-8.437 c 0,-1.531 0.156,-2.633 0.469,-3.297 0.312,-0.656 0.89,-0.984 1.734,-0.984 0.594,0 1.098,0.054 1.516,0.171 0.426,0.125 0.906,0.301 1.437,0.532 l 1.016,-4.391 c -0.793,-0.387 -1.719,-0.711 -2.781,-0.969 -1.055,-0.258 -2.121,-0.39 -3.203,-0.39 -2.032,0 -3.528,0.523 -4.485,1.562 -0.949,1.039 -1.422,2.75 -1.422,5.125 l 0,11.078 -3.031,0 0,4.844 z m 29.977,-5.375 c -0.918,0.32 -1.743,0.484 -2.469,0.484 -1.031,0 -1.891,-0.273 -2.578,-0.812 -0.688,-0.543 -1.149,-1.234 -1.375,-2.078 l 0,-14.219 -5.719,0 0,22 4.438,0 0.656,-2.906 0.172,0 c 0.5,1.082 1.175,1.914 2.031,2.5 0.851,0.594 1.848,0.89 2.984,0.89 0.77,0 1.641,-0.164 2.61,-0.484 l -0.75,-5.375 z m 2.425,-5.625 c 0,3.727 0.907,6.594 2.719,8.594 1.82,2.008 4.379,3.015 7.672,3.015 1.75,0 3.27,-0.281 4.563,-0.843 1.289,-0.555 2.363,-1.336 3.218,-2.344 0.852,-1.012 1.489,-2.234 1.907,-3.672 0.425,-1.437 0.64,-3.023 0.64,-4.75 0,-3.73 -0.902,-6.602 -2.703,-8.609 -1.805,-2 -4.344,-3 -7.625,-3 -1.762,0 -3.289,0.277 -4.578,0.828 -1.293,0.562 -2.371,1.347 -3.234,2.359 -0.868,1.008 -1.512,2.235 -1.938,3.672 -0.43,1.438 -0.641,3.02 -0.641,4.75 z m 5.891,0 c 0,-0.969 0.086,-1.867 0.266,-2.687 0.175,-0.825 0.441,-1.543 0.797,-2.157 0.351,-0.617 0.812,-1.093 1.375,-1.437 0.57,-0.336 1.257,-0.5 2.062,-0.5 1.488,0 2.598,0.539 3.328,1.625 0.738,1.094 1.11,2.812 1.11,5.156 0,2.02 -0.34,3.656 -1.016,4.906 -0.68,1.25 -1.82,1.875 -3.422,1.875 -1.418,0 -2.523,-0.531 -3.312,-1.593 -0.793,-1.055 -1.188,-2.782 -1.188,-5.188 z"
         style="fill:#ffffff;fill-opacity:1;fill-rule:nonzero;stroke:none"
         id="path30" /><path
         d="m 1766.086,30.523 c -0.938,-0.679 -2.137,-1.164 -3.594,-1.453 -1.449,-0.289 -2.937,-0.437 -4.469,-0.437 -1.843,0 -3.593,0.281 -5.25,0.844 -1.656,0.57 -3.117,1.492 -4.375,2.765 -1.261,1.281 -2.265,2.942 -3.015,4.985 -0.75,2.039 -1.125,4.515 -1.125,7.421 0,3.02 0.414,5.547 1.25,7.579 0.844,2.039 1.93,3.679 3.265,4.921 1.332,1.25 2.817,2.145 4.454,2.688 1.644,0.551 3.289,0.828 4.937,0.828 1.758,0 3.25,-0.121 4.469,-0.359 1.219,-0.231 2.222,-0.508 3.015,-0.828 l -1.187,-5.11 c -0.68,0.321 -1.481,0.555 -2.406,0.703 -0.93,0.145 -2.047,0.219 -3.36,0.219 -2.437,0 -4.398,-0.867 -5.875,-2.594 -1.48,-1.73 -2.218,-4.414 -2.218,-8.047 0,-1.586 0.171,-3.031 0.515,-4.343 0.352,-1.305 0.891,-2.418 1.61,-3.344 0.718,-0.918 1.613,-1.637 2.687,-2.156 1.07,-0.512 2.313,-0.766 3.719,-0.766 1.32,0 2.437,0.129 3.344,0.391 0.906,0.269 1.695,0.609 2.375,1.015 l 1.234,-4.922 z m 8.828,20.719 0,-12.5 c 0,-1.793 0.207,-3.086 0.625,-3.875 0.426,-0.793 1.254,-1.187 2.484,-1.187 1.094,0 2,0.32 2.719,0.968 0.719,0.645 1.25,1.438 1.594,2.375 l 0,14.219 5.719,0 0,-15.312 c 0,-1.2 0.054,-2.383 0.172,-3.547 0.125,-1.156 0.304,-2.203 0.546,-3.141 l -4.312,0 -1.016,3.25 -0.172,0 c -0.679,-1.117 -1.621,-2.039 -2.828,-2.765 -1.199,-0.727 -2.621,-1.094 -4.265,-1.094 -1.118,0 -2.118,0.148 -3,0.437 -0.875,0.289 -1.606,0.77 -2.188,1.438 -0.586,0.676 -1.031,1.586 -1.344,2.734 -0.312,1.145 -0.468,2.582 -0.468,4.313 l 0,13.687 5.734,0 z m 24.266,-14.609 c 0,-1.024 0.129,-1.774 0.39,-2.25 0.27,-0.469 0.696,-0.703 1.282,-0.703 0.351,0 0.695,0.031 1.031,0.093 0.332,0.063 0.75,0.192 1.25,0.391 l 0.625,-4.484 c -0.469,-0.231 -1.188,-0.457 -2.156,-0.688 -0.969,-0.238 -1.969,-0.359 -3,-0.359 -1.668,0 -2.946,0.387 -3.829,1.156 -0.875,0.781 -1.312,2.066 -1.312,3.859 l 0,26.391 5.719,0 0,-23.406 z m 4.922,14.609 3.031,0 0,4.141 5.719,1.625 0,-5.766 5.375,0 0,-4.844 -5.375,0 0,-8.437 c 0,-1.531 0.156,-2.633 0.468,-3.297 0.313,-0.656 0.891,-0.984 1.735,-0.984 0.593,0 1.097,0.054 1.515,0.172 0.426,0.125 0.907,0.3 1.438,0.531 l 1.015,-4.391 c -0.793,-0.387 -1.718,-0.711 -2.781,-0.969 -1.054,-0.257 -2.121,-0.39 -3.203,-0.39 -2.031,0 -3.527,0.523 -4.484,1.562 -0.95,1.039 -1.422,2.75 -1.422,5.125 l 0,11.078 -3.031,0 0,4.844 z m 23.336,0 0,-12.5 c 0,-1.793 0.207,-3.086 0.624,-3.875 0.426,-0.793 1.254,-1.187 2.485,-1.187 1.094,0 2,0.32 2.719,0.968 0.718,0.645 1.25,1.438 1.593,2.375 l 0,14.219 5.719,0 0,-15.312 c 0,-1.2 0.055,-2.383 0.172,-3.547 0.125,-1.156 0.305,-2.203 0.547,-3.141 l -4.313,0 -1.015,3.25 -0.172,0 c -0.68,-1.117 -1.621,-2.039 -2.828,-2.765 -1.199,-0.727 -2.621,-1.094 -4.266,-1.094 -1.117,0 -2.117,0.148 -3,0.437 -0.875,0.289 -1.605,0.77 -2.187,1.438 -0.586,0.676 -1.032,1.586 -1.344,2.734 -0.313,1.145 -0.469,2.582 -0.469,4.313 l 0,13.687 5.735,0 z m 30.519,-5.375 c -0.918,0.321 -1.742,0.485 -2.469,0.485 -1.031,0 -1.89,-0.274 -2.578,-0.813 -0.687,-0.543 -1.148,-1.234 -1.375,-2.078 l 0,-14.219 -5.719,0 0,22 4.438,0 0.656,-2.906 0.172,0 c 0.5,1.082 1.176,1.914 2.031,2.5 0.852,0.594 1.848,0.891 2.985,0.891 0.769,0 1.64,-0.165 2.609,-0.485 l -0.75,-5.375 z m 3.344,4.094 c 1.176,0.531 2.566,0.945 4.172,1.25 1.613,0.312 3.3,0.469 5.062,0.469 1.531,0 2.805,-0.184 3.828,-0.547 1.032,-0.367 1.844,-0.887 2.438,-1.563 0.601,-0.679 1.031,-1.484 1.281,-2.422 0.25,-0.937 0.375,-1.996 0.375,-3.171 0,-1.293 -0.047,-2.59 -0.141,-3.891 -0.086,-1.305 -0.132,-2.586 -0.14,-3.844 -0.012,-1.262 0.023,-2.484 0.109,-3.672 0.082,-1.187 0.301,-2.312 0.656,-3.375 l -4.656,0 -0.922,3.032 -0.218,0 c -0.594,-0.907 -1.415,-1.696 -2.454,-2.36 -1.043,-0.656 -2.382,-0.984 -4.015,-0.984 -1.031,0 -1.961,0.156 -2.781,0.469 -0.825,0.312 -1.528,0.75 -2.11,1.312 -0.586,0.57 -1.039,1.25 -1.359,2.031 -0.324,0.782 -0.485,1.657 -0.485,2.625 0,1.344 0.297,2.477 0.891,3.407 0.602,0.925 1.469,1.671 2.594,2.234 1.133,0.57 2.484,0.969 4.047,1.187 1.57,0.227 3.328,0.297 5.265,0.204 0.207,1.644 0.086,2.828 -0.359,3.546 -0.438,0.719 -1.418,1.079 -2.938,1.079 -1.148,0 -2.359,-0.122 -3.64,-0.36 -1.274,-0.23 -2.321,-0.539 -3.141,-0.922 l -1.359,4.266 z m 7.265,-16.359 c 1.145,0 2.051,0.253 2.719,0.765 0.676,0.508 1.176,1.063 1.5,1.656 l 0,2.86 c -0.906,0.082 -1.781,0.094 -2.625,0.031 -0.836,-0.055 -1.574,-0.184 -2.219,-0.391 -0.648,-0.211 -1.164,-0.507 -1.546,-0.89 -0.375,-0.375 -0.563,-0.856 -0.563,-1.438 0,-0.824 0.238,-1.465 0.719,-1.922 0.488,-0.449 1.16,-0.671 2.015,-0.671 z m 20.821,3.031 c 0,-1.024 0.129,-1.774 0.39,-2.25 0.27,-0.469 0.696,-0.703 1.282,-0.703 0.351,0 0.695,0.031 1.031,0.093 0.332,0.063 0.75,0.192 1.25,0.391 l 0.625,-4.484 c -0.469,-0.231 -1.188,-0.457 -2.156,-0.688 -0.969,-0.238 -1.969,-0.359 -3,-0.359 -1.668,0 -2.946,0.387 -3.829,1.156 -0.875,0.781 -1.312,2.066 -1.312,3.859 l 0,26.391 5.719,0 0,-23.406 z"
         style="fill:#ffffff;fill-opacity:1;fill-rule:nonzero;stroke:none"
         id="path32" /><path
         d="m 1744.27,16.152 c 0.582,0.114 1.226,0.203 1.937,0.266 0.707,0.062 1.41,0.094 2.109,0.094 0.727,0 1.457,-0.063 2.188,-0.188 0.738,-0.117 1.398,-0.351 1.984,-0.703 0.594,-0.355 1.071,-0.851 1.438,-1.484 0.375,-0.637 0.562,-1.469 0.562,-2.5 0,-0.918 -0.164,-1.699 -0.484,-2.344 -0.324,-0.637 -0.75,-1.156 -1.281,-1.563 -0.532,-0.406 -1.137,-0.699 -1.813,-0.875 -0.68,-0.179 -1.383,-0.265 -2.109,-0.265 -0.074,0 -0.188,0 -0.344,0 -0.148,0 -0.309,0 -0.484,0 -0.168,0.008 -0.336,0.019 -0.5,0.031 -0.157,0.02 -0.266,0.035 -0.328,0.047 l 0,-5.063 -2.875,0 0,14.547 z m 4.281,-2.109 c -0.281,0 -0.547,-0.012 -0.797,-0.031 -0.25,-0.024 -0.453,-0.047 -0.609,-0.078 l 0,-4.766 c 0.05,-0.023 0.132,-0.039 0.25,-0.047 0.113,-0.012 0.234,-0.023 0.359,-0.031 0.125,-0.012 0.242,-0.016 0.359,-0.016 0.125,0 0.211,0 0.266,0 0.375,0 0.75,0.035 1.125,0.11 0.375,0.07 0.707,0.203 1,0.39 0.289,0.188 0.523,0.446 0.703,0.781 0.176,0.344 0.266,0.786 0.266,1.329 0,0.457 -0.09,0.836 -0.266,1.14 -0.168,0.301 -0.387,0.539 -0.656,0.719 -0.274,0.187 -0.586,0.316 -0.938,0.391 -0.343,0.07 -0.699,0.109 -1.062,0.109 z m 13.004,2.266 8.703,0 0,-2.563 -5.828,0 0,-3.422 5.312,0 0,-2.562 -5.312,0 0,-3.594 5.937,0 0,-2.563 -8.812,0 0,14.704 z m 26.652,-2.563 -4.297,0 0,-12.141 -2.875,0 0,12.141 -4.297,0 0,2.563 11.469,0 0,-2.563 z m 6.766,2.406 c 0.32,0.063 0.664,0.114 1.031,0.157 0.375,0.05 0.742,0.093 1.109,0.125 0.375,0.031 0.735,0.05 1.078,0.062 0.352,0.008 0.676,0.016 0.969,0.016 0.688,0 1.363,-0.063 2.031,-0.188 0.664,-0.125 1.258,-0.344 1.782,-0.656 0.531,-0.305 0.953,-0.727 1.265,-1.266 0.313,-0.543 0.469,-1.218 0.469,-2.031 0,-1.199 -0.281,-2.18 -0.844,-2.937 -0.554,-0.75 -1.297,-1.274 -2.234,-1.563 l 1.031,-0.656 3.36,-5.61 -3.329,0 -3.328,5.75 -1.515,0.282 0,-6.032 -2.875,0 0,14.547 z m 4.406,-2.203 c -0.293,0 -0.586,-0.008 -0.875,-0.015 -0.281,-0.012 -0.5,-0.039 -0.656,-0.079 l 0,-4.265 1.218,0 c 0.789,0 1.426,0.18 1.907,0.547 0.476,0.363 0.718,0.961 0.718,1.797 0,0.632 -0.199,1.128 -0.593,1.484 -0.399,0.352 -0.969,0.531 -1.719,0.531 z m 12.328,-5 c 0,2.457 0.535,4.348 1.609,5.672 1.082,1.32 2.625,1.984 4.625,1.984 1.051,0 1.969,-0.183 2.75,-0.546 0.789,-0.368 1.442,-0.887 1.954,-1.563 0.519,-0.668 0.906,-1.469 1.156,-2.406 0.25,-0.938 0.375,-1.985 0.375,-3.141 0,-2.449 -0.543,-4.336 -1.625,-5.656 -1.086,-1.324 -2.621,-1.984 -4.61,-1.984 -1.062,0 -1.984,0.183 -2.765,0.546 -0.781,0.364 -1.434,0.879 -1.953,1.547 -0.512,0.676 -0.891,1.485 -1.141,2.422 -0.25,0.938 -0.375,1.977 -0.375,3.125 z m 3.031,0 c 0,-0.742 0.063,-1.422 0.188,-2.047 0.125,-0.617 0.316,-1.148 0.578,-1.593 0.258,-0.45 0.586,-0.805 0.984,-1.063 0.407,-0.25 0.891,-0.375 1.453,-0.375 1.02,0 1.813,0.395 2.375,1.188 0.563,0.8 0.844,2.097 0.844,3.89 0,0.719 -0.062,1.383 -0.187,2 -0.118,0.613 -0.297,1.149 -0.547,1.61 -0.25,0.468 -0.578,0.832 -0.985,1.093 -0.406,0.258 -0.906,0.391 -1.5,0.391 -1.023,0 -1.812,-0.414 -2.375,-1.234 -0.554,-0.825 -0.828,-2.11 -0.828,-3.86 z m 16.782,7.203 c 0.582,0.114 1.226,0.203 1.937,0.266 0.707,0.062 1.41,0.094 2.109,0.094 0.727,0 1.457,-0.063 2.188,-0.188 0.738,-0.117 1.398,-0.351 1.984,-0.703 0.594,-0.355 1.071,-0.851 1.438,-1.484 0.375,-0.637 0.562,-1.469 0.562,-2.5 0,-0.918 -0.164,-1.699 -0.484,-2.344 -0.324,-0.637 -0.75,-1.156 -1.281,-1.563 -0.532,-0.406 -1.137,-0.699 -1.813,-0.875 -0.68,-0.179 -1.383,-0.265 -2.109,-0.265 -0.074,0 -0.188,0 -0.344,0 -0.148,0 -0.309,0 -0.484,0 -0.168,0.008 -0.336,0.019 -0.5,0.031 -0.157,0.02 -0.266,0.035 -0.328,0.047 l 0,-5.063 -2.875,0 0,14.547 z m 4.281,-2.109 c -0.281,0 -0.547,-0.012 -0.797,-0.031 -0.25,-0.024 -0.453,-0.047 -0.609,-0.078 l 0,-4.766 c 0.05,-0.023 0.132,-0.039 0.25,-0.047 0.113,-0.012 0.234,-0.023 0.359,-0.031 0.125,-0.012 0.242,-0.016 0.359,-0.016 0.125,0 0.211,0 0.266,0 0.375,0 0.75,0.035 1.125,0.11 0.375,0.07 0.707,0.203 1,0.39 0.289,0.188 0.523,0.446 0.703,0.781 0.176,0.344 0.266,0.786 0.266,1.329 0,0.457 -0.09,0.836 -0.266,1.14 -0.168,0.301 -0.387,0.539 -0.656,0.719 -0.274,0.187 -0.586,0.316 -0.938,0.391 -0.343,0.07 -0.699,0.109 -1.062,0.109 z m 13.004,2.266 8.703,0 0,-2.563 -5.828,0 0,-3.422 5.312,0 0,-2.562 -5.312,0 0,-3.594 5.937,0 0,-2.563 -8.812,0 0,14.704 z m 16.215,-0.157 c 0.32,0.063 0.664,0.114 1.031,0.157 0.375,0.05 0.742,0.093 1.109,0.125 0.375,0.031 0.735,0.05 1.078,0.062 0.352,0.008 0.676,0.016 0.969,0.016 0.688,0 1.363,-0.063 2.031,-0.188 0.664,-0.125 1.258,-0.344 1.782,-0.656 0.531,-0.305 0.953,-0.727 1.265,-1.266 0.313,-0.543 0.469,-1.218 0.469,-2.031 0,-1.199 -0.281,-2.18 -0.844,-2.937 -0.555,-0.75 -1.297,-1.274 -2.234,-1.563 l 1.031,-0.656 3.359,-5.61 -3.328,0 -3.328,5.75 -1.515,0.282 0,-6.032 -2.875,0 0,14.547 z m 4.406,-2.203 c -0.293,0 -0.586,-0.008 -0.875,-0.015 -0.281,-0.012 -0.5,-0.039 -0.656,-0.079 l 0,-4.265 1.218,0 c 0.789,0 1.426,0.18 1.907,0.547 0.476,0.363 0.718,0.961 0.718,1.797 0,0.632 -0.199,1.128 -0.593,1.484 -0.399,0.352 -0.969,0.531 -1.719,0.531 z m 21.465,2.36 2.734,0 0,-9.5 c 0,-0.95 -0.125,-1.766 -0.375,-2.454 -0.25,-0.687 -0.602,-1.257 -1.047,-1.703 -0.449,-0.449 -0.996,-0.777 -1.641,-0.984 -0.648,-0.207 -1.355,-0.313 -2.124,-0.313 -3.719,0 -5.579,1.696 -5.579,5.094 l 0,9.86 2.875,0 0,-9.282 c 0,-0.574 0.051,-1.062 0.157,-1.468 0.101,-0.399 0.265,-0.719 0.484,-0.969 0.227,-0.242 0.508,-0.414 0.844,-0.516 0.332,-0.105 0.722,-0.156 1.172,-0.156 0.882,0 1.519,0.242 1.906,0.734 0.394,0.489 0.594,1.282 0.594,2.375 l 0,9.282 z m -1.797,3.562 3.344,0 0,-0.625 -3.36,-1.844 -2.156,0 2.172,2.469 z"
         style="fill:#ffffff;fill-opacity:1;fill-rule:nonzero;stroke:none"
         id="path34" /><g
         id="g36"
         transform="matrix(1,0,0,-1,0,97.125)"><path
           d="m 2048.426,0.555 -43.25,43.273 3.273,3.281 -4.75,4.696 44.727,44.75 48,-48 -48,-48 z"
           style="fill:none;stroke:#ffffff;stroke-opacity:1;stroke-width:0.8;stroke-linecap:butt;stroke-linejoin:miter;stroke-miterlimit:4;stroke-dasharray:none"
           id="path38" /></g><path
         d="m 2113.969,70.922 7.328,0 0,-29.156 -7.328,0 0,29.156 z m 14.679,0 8.188,0 10.344,-20 0,20 6.953,0 0,-29.156 -8.188,0 -10.343,20 0,-20 -6.954,0 0,29.156 z m 32.977,0 19.781,0 0,-5.672 -12.453,0 0,-5.438 11.719,0 0,-5.687 -11.719,0 0,-12.359 -7.328,0 0,29.156 z M 2201.508,66 c -2.231,0 -3.965,-0.852 -5.203,-2.547 -1.231,-1.687 -1.844,-4.07 -1.844,-7.141 0,-3.054 0.613,-5.429 1.844,-7.124 1.238,-1.688 2.972,-2.532 5.203,-2.532 2.25,0 3.988,0.844 5.219,2.532 1.226,1.695 1.843,4.07 1.843,7.124 0,3.071 -0.617,5.454 -1.843,7.141 -1.231,1.695 -2.969,2.547 -5.219,2.547 z m 0,5.453 c 4.57,0 8.148,-1.344 10.734,-4.031 2.594,-2.68 3.891,-6.383 3.891,-11.11 0,-4.71 -1.297,-8.406 -3.891,-11.093 -2.586,-2.68 -6.164,-4.016 -10.734,-4.016 -4.555,0 -8.133,1.336 -10.735,4.016 -2.593,2.687 -3.89,6.383 -3.89,11.093 0,4.727 1.297,8.43 3.89,11.11 2.602,2.687 6.18,4.031 10.735,4.031 z m 20.453,-0.531 12.172,0 c 3.613,0 6.39,-0.824 8.328,-2.469 1.937,-1.648 2.906,-3.992 2.906,-7.031 0,-3.063 -0.969,-5.418 -2.906,-7.063 -1.938,-1.648 -4.715,-2.468 -8.328,-2.468 l -4.844,0 0,-10.125 -7.328,0 0,29.156 z m 7.328,-5.438 0,-8.156 4.063,0 c 1.414,0 2.507,0.352 3.281,1.063 0.781,0.718 1.172,1.726 1.172,3.031 0,1.301 -0.391,2.301 -1.172,3 -0.774,0.707 -1.867,1.062 -3.281,1.062 l -4.063,0 z m 21.496,5.438 7.328,0 0,-17.469 c 0,-2.418 0.383,-4.141 1.157,-5.172 0.769,-1.031 2.023,-1.547 3.765,-1.547 1.75,0 3.004,0.516 3.766,1.547 0.769,1.031 1.156,2.754 1.156,5.172 l 0,17.469 7.344,0 0,-17.469 c 0,-4.137 -1.012,-7.215 -3.031,-9.234 -2.024,-2.012 -5.102,-3.016 -9.235,-3.016 -4.125,0 -7.199,1.004 -9.219,3.016 -2.023,2.019 -3.031,5.097 -3.031,9.234 l 0,17.469 z m 54.52,-27.547 c -1.344,-0.719 -2.746,-1.262 -4.203,-1.625 -1.461,-0.363 -2.985,-0.547 -4.579,-0.547 -4.73,0 -8.48,1.352 -11.25,4.063 -2.773,2.718 -4.156,6.398 -4.156,11.046 0,4.665 1.383,8.352 4.156,11.063 2.77,2.719 6.52,4.078 11.25,4.078 1.594,0 3.118,-0.183 4.579,-0.547 1.457,-0.367 2.859,-0.906 4.203,-1.625 l 0,-6.031 c -1.356,0.945 -2.696,1.641 -4.016,2.078 -1.324,0.445 -2.715,0.672 -4.172,0.672 -2.617,0 -4.672,-0.859 -6.172,-2.578 -1.5,-1.719 -2.25,-4.09 -2.25,-7.11 0,-3 0.75,-5.359 2.25,-7.078 1.5,-1.718 3.555,-2.578 6.172,-2.578 1.457,0 2.848,0.219 4.172,0.656 1.32,0.446 2.66,1.145 4.016,2.094 l 0,-6.031 z"
         style="fill:#ffffff;fill-opacity:1;fill-rule:nonzero;stroke:none"
         id="path40" /><path
         d="m 2114.043,33.785 1.375,0 0,-10.203 -1.375,0 0,10.203 z m 4,0 1.859,0 4.532,-8.531 0,8.531 1.328,0 0,-10.203 -1.86,0 -4.515,8.531 0,-8.531 -1.344,0 0,10.203 z m 16.273,-0.328 0,-1.344 c -0.531,0.25 -1.031,0.43 -1.5,0.547 -0.461,0.125 -0.906,0.188 -1.343,0.188 -0.75,0 -1.328,-0.149 -1.735,-0.438 -0.406,-0.293 -0.609,-0.703 -0.609,-1.234 0,-0.461 0.133,-0.805 0.406,-1.031 0.27,-0.231 0.785,-0.415 1.547,-0.547 l 0.828,-0.172 c 1.031,-0.199 1.789,-0.547 2.281,-1.047 0.489,-0.492 0.735,-1.152 0.735,-1.984 0,-0.993 -0.336,-1.743 -1,-2.25 -0.656,-0.512 -1.625,-0.766 -2.906,-0.766 -0.493,0 -1.008,0.059 -1.547,0.172 -0.543,0.101 -1.106,0.265 -1.688,0.484 l 0,1.422 c 0.563,-0.312 1.11,-0.555 1.641,-0.719 0.539,-0.156 1.07,-0.234 1.594,-0.234 0.781,0 1.382,0.156 1.812,0.469 0.438,0.312 0.656,0.754 0.656,1.328 0,0.5 -0.156,0.89 -0.468,1.172 -0.305,0.281 -0.809,0.492 -1.516,0.64 l -0.844,0.157 c -1.031,0.207 -1.777,0.531 -2.234,0.968 -0.461,0.438 -0.688,1.047 -0.688,1.828 0,0.895 0.317,1.602 0.953,2.125 0.633,0.52 1.508,0.782 2.625,0.782 0.477,0 0.969,-0.047 1.469,-0.141 0.5,-0.086 1.008,-0.211 1.531,-0.375 z m 1.063,0.328 8.641,0 0,-1.156 -3.625,0 0,-9.047 -1.391,0 0,9.047 -3.625,0 0,1.156 z m 9.715,0 1.375,0 0,-10.203 -1.375,0 0,10.203 z m 2.582,0 8.64,0 0,-1.156 -3.625,0 0,-9.047 -1.39,0 0,9.047 -3.625,0 0,1.156 z m 9.558,0 1.391,0 0,-6.203 c 0,-1.094 0.195,-1.883 0.594,-2.359 0.394,-0.481 1.035,-0.719 1.922,-0.719 0.882,0 1.523,0.238 1.921,0.719 0.395,0.476 0.594,1.265 0.594,2.359 l 0,6.203 1.391,0 0,-6.375 c 0,-1.324 -0.328,-2.328 -0.985,-3.015 -0.656,-0.68 -1.632,-1.016 -2.921,-1.016 -1.293,0 -2.266,0.336 -2.922,1.016 -0.657,0.687 -0.985,1.691 -0.985,3.015 l 0,6.375 z m 8.672,0 8.641,0 0,-1.156 -3.625,0 0,-9.047 -1.391,0 0,9.047 -3.625,0 0,1.156 z m 13.856,-0.937 c -1,0 -1.797,-0.375 -2.391,-1.125 -0.586,-0.743 -0.875,-1.758 -0.875,-3.047 0,-1.281 0.289,-2.297 0.875,-3.047 0.594,-0.75 1.391,-1.125 2.391,-1.125 1,0 1.789,0.375 2.375,1.125 0.593,0.75 0.89,1.766 0.89,3.047 0,1.289 -0.297,2.304 -0.89,3.047 -0.586,0.75 -1.375,1.125 -2.375,1.125 z m 0,1.125 c 1.426,0 2.566,-0.481 3.422,-1.438 0.863,-0.961 1.296,-2.246 1.296,-3.859 0,-1.606 -0.433,-2.891 -1.296,-3.86 -0.856,-0.961 -1.996,-1.437 -3.422,-1.437 -1.438,0 -2.59,0.476 -3.453,1.437 -0.856,0.957 -1.282,2.243 -1.282,3.86 0,1.613 0.426,2.898 1.282,3.859 0.863,0.957 2.015,1.438 3.453,1.438 z m 12.23,-1.313 0,-7.937 1.672,0 c 1.406,0 2.438,0.316 3.094,0.953 0.656,0.633 0.984,1.64 0.984,3.015 0,1.375 -0.328,2.379 -0.984,3.016 -0.656,0.633 -1.688,0.953 -3.094,0.953 l -1.672,0 z m -1.375,1.125 2.844,0 c 1.969,0 3.414,-0.414 4.344,-1.234 0.925,-0.824 1.39,-2.11 1.39,-3.86 0,-1.761 -0.465,-3.054 -1.39,-3.875 -0.93,-0.824 -2.375,-1.234 -4.344,-1.234 l -2.844,0 0,10.203 z m 10.442,0 6.453,0 0,-1.156 -5.078,0 0,-3.031 4.859,0 0,-1.157 -4.859,0 0,-3.703 5.203,0 0,-1.156 -6.578,0 0,10.203 z m 12.902,0 1.375,0 0,-10.203 -1.375,0 0,10.203 z m 4,0 1.859,0 4.532,-8.531 0,8.531 1.328,0 0,-10.203 -1.86,0 -4.515,8.531 0,-8.531 -1.344,0 0,10.203 z m 10.148,0 5.86,0 0,-1.156 -4.485,0 0,-3.016 4.047,0 0,-1.156 -4.047,0 0,-4.875 -1.375,0 0,10.203 z m 11.957,-0.937 c -1,0 -1.796,-0.375 -2.39,-1.125 -0.586,-0.743 -0.875,-1.758 -0.875,-3.047 0,-1.281 0.289,-2.297 0.875,-3.047 0.594,-0.75 1.39,-1.125 2.39,-1.125 1,0 1.789,0.375 2.375,1.125 0.594,0.75 0.891,1.766 0.891,3.047 0,1.289 -0.297,2.304 -0.891,3.047 -0.586,0.75 -1.375,1.125 -2.375,1.125 z m 0,1.125 c 1.426,0 2.567,-0.481 3.422,-1.438 0.864,-0.961 1.297,-2.246 1.297,-3.859 0,-1.606 -0.433,-2.891 -1.297,-3.86 -0.855,-0.961 -1.996,-1.437 -3.422,-1.437 -1.437,0 -2.589,0.476 -3.453,1.437 -0.855,0.957 -1.281,2.243 -1.281,3.86 0,1.613 0.426,2.898 1.281,3.859 0.864,0.957 2.016,1.438 3.453,1.438 z m 11.383,-5.61 c 0.289,-0.093 0.578,-0.308 0.86,-0.64 0.281,-0.325 0.562,-0.774 0.843,-1.344 l 1.407,-2.797 -1.485,0 -1.312,2.625 c -0.336,0.676 -0.664,1.125 -0.985,1.344 -0.312,0.226 -0.742,0.344 -1.281,0.344 l -1.516,0 0,-4.313 -1.375,0 0,10.203 3.11,0 c 1.164,0 2.035,-0.246 2.609,-0.734 0.582,-0.481 0.875,-1.215 0.875,-2.203 0,-0.649 -0.152,-1.184 -0.453,-1.61 -0.305,-0.418 -0.734,-0.711 -1.297,-0.875 z m -3.469,4.297 0,-3.625 1.735,0 c 0.664,0 1.172,0.149 1.515,0.453 0.344,0.313 0.516,0.766 0.516,1.36 0,0.593 -0.172,1.039 -0.516,1.343 -0.343,0.313 -0.851,0.469 -1.515,0.469 l -1.735,0 z m 8.059,1.125 2.063,0 2.593,-6.937 2.625,6.937 2.063,0 0,-10.203 -1.36,0 0,8.969 -2.625,-7 -1.39,0 -2.625,7 0,-8.969 -1.344,0 0,10.203 z m 15.117,-1.359 -1.875,-5.078 3.766,0 -1.891,5.078 z m -0.781,1.359 1.578,0 3.891,-10.203 -1.438,0 -0.937,2.625 -4.594,0 -0.937,-2.625 -1.454,0 3.891,10.203 z m 0.875,3.235 1.266,0 -1.563,-1.813 -1.047,0 1.344,1.813 z m 3.293,-3.235 8.641,0 0,-1.156 -3.625,0 0,-9.047 -1.391,0 0,9.047 -3.625,0 0,1.156 z m 9.715,0 1.375,0 0,-10.203 -1.375,0 0,10.203 z m 11.64,-0.781 0,-1.453 c -0.468,0.426 -0.968,0.742 -1.5,0.953 -0.523,0.219 -1.074,0.328 -1.656,0.328 -1.168,0 -2.062,-0.359 -2.687,-1.078 -0.617,-0.711 -0.922,-1.734 -0.922,-3.078 0,-1.344 0.305,-2.375 0.922,-3.094 0.625,-0.711 1.519,-1.062 2.687,-1.062 0.582,0 1.133,0.101 1.656,0.312 0.532,0.219 1.032,0.547 1.5,0.984 l 0,-1.453 c -0.48,-0.324 -0.992,-0.57 -1.531,-0.734 -0.543,-0.164 -1.117,-0.25 -1.719,-0.25 -1.543,0 -2.761,0.473 -3.656,1.422 -0.887,0.945 -1.328,2.238 -1.328,3.875 0,1.633 0.441,2.926 1.328,3.875 0.895,0.945 2.113,1.422 3.656,1.422 0.614,0 1.192,-0.086 1.735,-0.25 0.539,-0.157 1.047,-0.399 1.515,-0.719 z m 5.254,-0.578 -1.875,-5.078 3.766,0 -1.891,5.078 z m -0.781,1.359 1.578,0 3.891,-10.203 -1.438,0 -0.937,2.625 -4.594,0 -0.937,-2.625 -1.454,0 3.891,10.203 z"
         style="fill:#ffffff;fill-opacity:1;fill-rule:nonzero;stroke:none"
         id="path42" /><path
         d="m 2055.09,89.922 0,-20.848 -15.375,0 0,18.774 -34.547,-34.551 34.547,-34.524 0,42.125 15.375,0 0,-44.199 -6.625,-6.625 43.277,43.223 -36.652,36.625 z"
         style="fill:#ffffff;fill-opacity:1;fill-rule:nonzero;stroke:none"
         id="path44" /></g></g></svg>