<?xml version="1.0" encoding="UTF-8" standalone="no"?>
<!-- Created with Inkscape (http://www.inkscape.org/) -->

<svg
   xmlns:dc="http://purl.org/dc/elements/1.1/"
   xmlns:cc="http://creativecommons.org/ns#"
   xmlns:rdf="http://www.w3.org/1999/02/22-rdf-syntax-ns#"
   xmlns:svg="http://www.w3.org/2000/svg"
   xmlns="http://www.w3.org/2000/svg"
   xmlns:sodipodi="http://sodipodi.sourceforge.net/DTD/sodipodi-0.dtd"
   xmlns:inkscape="http://www.inkscape.org/namespaces/inkscape"
   id="svg2"
   version="1.1"
   inkscape:version="0.48.5 r10040"
   width="2449.5798"
   height="2243.8205"
   xml:space="preserve"
   sodipodi:docname="New document 1"><metadata
     id="metadata8"><rdf:RDF><cc:Work
         rdf:about=""><dc:format>image/svg+xml</dc:format><dc:type
           rdf:resource="http://purl.org/dc/dcmitype/StillImage" /><dc:title></dc:title></cc:Work></rdf:RDF></metadata><defs
     id="defs6" /><sodipodi:namedview
     pagecolor="#ffffff"
     bordercolor="#666666"
     borderopacity="1"
     objecttolerance="10"
     gridtolerance="10"
     guidetolerance="10"
     inkscape:pageopacity="0"
     inkscape:pageshadow="2"
     inkscape:window-width="640"
     inkscape:window-height="480"
     id="namedview4"
     showgrid="false"
     inkscape:zoom="0.10517775"
     inkscape:cx="1224.7899"
     inkscape:cy="1121.9103"
     inkscape:window-x="0"
     inkscape:window-y="27"
     inkscape:window-maximized="0"
     inkscape:current-layer="g10" /><g
     id="g10"
     inkscape:groupmode="layer"
     inkscape:label="back_top"
     transform="matrix(1.25,0,0,-1.25,0,2243.8205)"><g
       id="g12"><g
         id="g14"
         transform="matrix(1,0,0,-1,0,1795.0564)"><path
           d="m 330.285,403.77 c -6.273,3.132 -14.293,5.921 -24.062,8.359 -9.762,2.445 -20.133,4.453 -31.11,6.016 -10.98,1.57 -22.136,2.796 -33.468,3.671 -11.336,0.875 -21.711,1.313 -31.125,1.313 -29.282,0 -56.391,-4.621 -81.329,-13.859 C 104.262,400.027 82.82,386.609 64.863,369.004 46.914,351.391 32.793,329.684 22.504,303.879 12.223,278.078 7.082,248.613 7.082,215.488 c 0,-29.976 4.789,-57.691 14.375,-83.14 9.594,-25.457 23.191,-47.426 40.797,-65.907 17.601,-18.476 38.957,-32.859 64.062,-43.14 25.102,-10.289 53.348,-15.438 84.735,-15.438 20.57,0 39.57,1.309 57,3.922 17.437,2.617 33.648,6.188 48.64,10.719 5.227,1.742 8.282,3.398 9.157,4.969 0.875,1.574 0.961,3.929 0.265,7.062 l -7.843,46.547 c -0.7,5.23 -2.184,7.934 -4.454,8.109 -2.273,0.168 -6.023,-0.617 -11.25,-2.359 -15.687,-5.227 -31.117,-8.891 -46.281,-10.984 -15.168,-2.094 -30.422,-3.141 -45.765,-3.141 -19.18,0 -36.7,3.492 -52.563,10.469 -15.867,6.969 -29.555,16.82 -41.062,29.547 -11.5,12.73 -20.477,27.812 -26.922,45.25 -6.45,17.429 -9.672,36.601 -9.672,57.515 0,22.668 3.222,42.891 9.672,60.672 6.445,17.781 15.507,32.867 27.187,45.25 11.688,12.375 25.461,21.789 41.328,28.235 15.864,6.449 33.207,9.671 52.032,9.671 12.906,0 24.675,-0.429 35.312,-1.296 10.633,-0.875 18.738,-2.188 24.313,-3.938 l 0,-96.75 -80.016,0 c -6.981,0 -10.469,-3.484 -10.469,-10.453 l 0,-44.469 c 0,-6.969 3.66,-10.453 10.985,-10.453 l 133.89,0 c 8.02,0 12.813,1.047 14.375,3.141 1.57,2.093 2.36,6.625 2.36,13.593 l 0,173.641 c 0,6.625 -0.872,11.242 -2.61,13.859 -1.742,2.614 -4.531,5.141 -8.375,7.579 z m 336.492,13.078 c -4.187,0 -6.98,-0.438 -8.375,-1.313 -1.386,-0.867 -3.125,-3.219 -5.218,-7.062 l -151.157,-275.61 0,271.438 c 0,5.57 -0.523,9.054 -1.562,10.453 -1.043,1.394 -4.356,2.094 -9.938,2.094 l -47.593,0 c -5.231,0 -8.543,-0.7 -9.938,-2.094 -1.398,-1.399 -2.094,-4.883 -2.094,-10.453 l 0,-377.094 c 0,-5.926 0.61,-9.758 1.828,-11.5 1.227,-1.738 4.977,-2.609 11.25,-2.609 l 51.782,0 c 4.176,0 6.961,0.523 8.359,1.562 1.395,1.043 3.317,3.836 5.766,8.375 l 149.047,273.516 0,-270.906 c 0,-5.227 0.609,-8.625 1.828,-10.188 1.218,-1.57 4.441,-2.359 9.672,-2.359 l 47.078,0 c 6.269,0 9.926,0.871 10.968,2.609 1.051,1.742 1.579,5.055 1.579,9.938 l 0,376.562 c 0,6.625 -0.7,10.719 -2.094,12.281 -1.399,1.571 -5.231,2.36 -11.5,2.36 l -49.688,0 z m 443.035,-51.25 c -16.386,20.574 -35.734,35.738 -58.046,45.5 -22.313,9.757 -47.594,14.64 -75.844,14.64 -31.375,0 -58.309,-5.668 -80.797,-17 -22.492,-11.336 -40.969,-26.672 -55.437,-46.015 -14.469,-19.352 -25.106,-41.672 -31.907,-66.953 -6.804,-25.282 -10.203,-51.864 -10.203,-79.75 0,-27.196 3.484,-53.438 10.453,-78.719 6.977,-25.281 17.789,-47.594 32.438,-66.938 14.644,-19.351 33.125,-34.781 55.437,-46.281 22.313,-11.508 48.985,-17.266 80.016,-17.266 30.687,0 57.187,5.844 79.5,17.532 22.312,11.679 40.789,27.195 55.437,46.547 14.645,19.343 25.539,41.57 32.688,66.671 7.144,25.106 10.547,51.258 10.203,78.454 -0.355,30.679 -4.016,58.484 -10.984,83.421 -6.969,24.93 -17.954,46.981 -32.954,66.157 z M 975.922,71.66 c -18.125,0 -33.731,4.102 -46.813,12.297 -13.074,8.199 -23.882,19.094 -32.421,32.688 -8.543,13.593 -14.821,29.023 -18.829,46.281 -4,17.262 -6,34.961 -6,53.094 0,18.125 2,35.82 6,53.078 4.008,17.261 10.286,32.695 18.829,46.297 8.539,13.593 19.347,24.574 32.421,32.937 13.082,8.367 28.688,12.547 46.813,12.547 17.789,0 33.223,-4.18 46.297,-12.547 13.07,-8.363 23.789,-19.344 32.156,-32.937 8.375,-13.602 14.563,-29.118 18.563,-46.547 4.007,-17.438 6.015,-35.047 6.015,-52.828 0,-17.438 -2.008,-34.786 -6.015,-52.047 -4,-17.258 -10.188,-32.688 -18.563,-46.282 -8.367,-13.593 -19,-24.66 -31.906,-33.203 C 1009.57,75.938 994.055,71.66 975.922,71.66 z m 603.359,345.188 c -4.531,0 -7.324,-0.61 -8.375,-1.828 -1.043,-1.219 -1.562,-3.922 -1.562,-8.11 l 0,-262.547 -101.985,260.985 c -1.75,3.832 -3.324,6.269 -4.718,7.312 -1.387,1.051 -4,1.578 -7.844,1.578 l -45.5,0 c -3.836,0 -6.539,-0.527 -8.109,-1.578 -1.563,-1.043 -3.043,-3.48 -4.438,-7.312 l -101.984,-260.985 0,262.547 c 0,4.188 -0.528,6.891 -1.578,8.11 -1.043,1.218 -3.829,1.828 -8.36,1.828 l -51.25,0 c -4.531,0 -7.324,-0.61 -8.375,-1.828 -1.043,-1.219 -1.562,-3.922 -1.562,-8.11 l 0,-377.078 c 0,-7.32 0.781,-11.766 2.343,-13.328 1.571,-1.57 5.844,-2.359 12.813,-2.359 l 58.578,0 c 3.145,0 5.586,0.523 7.328,1.562 1.738,1.043 3.305,3.309 4.703,6.797 l 122.391,303.859 122.891,-303.859 c 2.093,-5.57 6.453,-8.359 13.078,-8.359 l 57.015,0 c 7.321,0 11.766,0.789 13.328,2.359 1.571,1.562 2.36,6.008 2.36,13.328 l 0,377.078 c 0,4.188 -0.61,6.891 -1.828,8.11 -1.219,1.218 -3.922,1.828 -8.11,1.828 l -51.25,0 z m 172.141,0.515 c -8.367,0 -13.422,-1.047 -15.172,-3.14 -1.742,-2.086 -2.609,-7.485 -2.609,-16.203 l 0,-365.579 c 0,-8.019 0.781,-13.07 2.343,-15.156 1.571,-2.094 6.368,-3.14 14.391,-3.14 l 186.187,0 c 5.926,0 9.239,1.046 9.938,3.14 0.695,2.086 1.047,5.219 1.047,9.406 l 0,40.797 c 0,4.875 -0.527,8.102 -1.578,9.672 -1.043,1.574 -4.18,2.36 -9.407,2.36 l -131.796,0 0,99.359 125,0 c 5.582,0 8.804,1.047 9.672,3.141 0.874,2.093 1.312,5.234 1.312,9.421 l 0,40.782 c 0,4.886 -0.609,8.117 -1.828,9.687 -1.219,1.563 -4.274,2.344 -9.156,2.344 l -125,0 0,107.734 137.031,0 c 5.57,0 8.797,0.875 9.672,2.625 0.875,1.742 1.312,4.875 1.312,9.407 l 0,40.796 c 0,4.532 -0.437,7.754 -1.312,9.672 -0.875,1.914 -4.102,2.875 -9.672,2.875 l -190.375,0 z"
           style="fill:#f9f9f9;fill-opacity:1;fill-rule:nonzero;stroke:#ffffff;stroke-opacity:1;stroke-width:14.106798;stroke-linecap:butt;stroke-linejoin:miter;stroke-miterlimit:4;stroke-dasharray:none"
           id="path16" /></g><g
         id="g18"
         transform="matrix(1,0,0,-1,0,1795.0564)"><path
           d="m 78.211,710.391 0,145.921 c 0,4.876 -0.789,7.922 -2.359,9.141 -1.563,1.219 -4.262,1.828 -8.094,1.828 l -50.203,0 c -3.493,0 -6.11,-0.609 -7.86,-1.828 -1.742,-1.219 -2.609,-4.265 -2.609,-9.141 l 0,-381.281 c 0,-4.176 0.957,-6.961 2.875,-8.359 1.914,-1.395 4.269,-2.094 7.062,-2.094 l 104.594,0 c 19.176,0 36.695,2.445 52.563,7.328 15.863,4.875 29.375,12.371 40.531,22.485 11.164,10.117 19.797,22.757 25.891,37.921 6.101,15.168 9.156,33.211 9.156,54.126 0,20.218 -3.403,38 -10.203,53.343 -6.793,15.344 -16.032,28.246 -27.719,38.703 -11.68,10.461 -25.625,18.391 -41.844,23.797 -16.211,5.407 -33.726,8.11 -52.547,8.11 l -39.234,0 z m 0,-180.953 0,116.093 34.516,0 c 20.925,0 36.968,-4.703 48.125,-14.109 11.156,-9.414 16.734,-24.586 16.734,-45.516 0,-18.476 -4.449,-32.508 -13.344,-42.094 -8.887,-9.582 -20.652,-14.374 -35.297,-14.374 l -50.734,0 z m 249.898,337.843 c -8.367,0 -13.421,-1.047 -15.171,-3.14 -1.743,-2.086 -2.61,-7.485 -2.61,-16.203 l 0,-365.579 c 0,-8.019 0.781,-13.07 2.344,-15.156 1.57,-2.094 6.367,-3.141 14.39,-3.141 l 186.188,0 c 5.926,0 9.238,1.047 9.938,3.141 0.695,2.086 1.046,5.219 1.046,9.406 l 0,40.797 c 0,4.875 -0.527,8.102 -1.578,9.672 -1.043,1.574 -4.179,2.36 -9.406,2.36 l -131.797,0 0,99.359 125,0 c 5.582,0 8.805,1.047 9.672,3.141 0.875,2.093 1.313,5.234 1.313,9.421 l 0,40.782 c 0,4.886 -0.61,8.117 -1.829,9.687 -1.218,1.563 -4.273,2.344 -9.156,2.344 l -125,0 0,107.734 137.031,0 c 5.571,0 8.797,0.875 9.672,2.625 0.875,1.742 1.313,4.875 1.313,9.407 l 0,40.796 c 0,4.532 -0.438,7.754 -1.313,9.672 -0.875,1.914 -4.101,2.875 -9.672,2.875 l -190.375,0 z m 489.434,-0.515 c -4.188,0 -6.891,-0.438 -8.109,-1.313 -1.219,-0.867 -2.7,-3.219 -4.438,-7.062 l -74.266,-149.047 -48.125,0 0,146.437 c 0,4.883 -0.699,7.938 -2.093,9.157 -1.399,1.218 -4.012,1.828 -7.844,1.828 l -50.734,0 c -3.481,0 -6.094,-0.61 -7.844,-1.828 -1.742,-1.219 -2.61,-4.274 -2.61,-9.157 l 0,-381.265 c 0,-4.188 0.958,-6.973 2.875,-8.36 1.915,-1.394 4.27,-2.094 7.063,-2.094 l 105.125,0 c 19.519,0 37.211,2.446 53.078,7.329 15.863,4.875 29.375,12.371 40.531,22.484 11.157,10.105 19.786,22.742 25.891,37.906 6.102,15.168 9.156,33.211 9.156,54.125 0,25.106 -5.406,46.465 -16.219,64.078 -10.804,17.606 -25.093,31.465 -42.875,41.578 l 84.719,161.61 c 2.789,5.226 3.836,8.801 3.141,10.719 -0.699,1.914 -3.664,2.875 -8.891,2.875 l -57.531,0 z m -134.938,-338.375 0,117.14 35.047,0 c 20.914,0 37.125,-4.789 48.625,-14.375 11.508,-9.594 17.266,-24.847 17.266,-45.765 0,-18.821 -4.621,-33.024 -13.859,-42.61 -9.243,-9.593 -21.184,-14.39 -35.829,-14.39 l -51.25,0 z m 494.618,315.89 c -13.25,10.457 -27.985,18.211 -44.203,23.266 -16.211,5.062 -33.555,7.594 -52.032,7.594 -18.836,0 -36.093,-2.446 -51.781,-7.329 -15.687,-4.886 -30.156,-12.73 -43.406,-23.531 -18.137,-14.301 -31.305,-31.82 -39.5,-52.562 -8.188,-20.75 -12.281,-44.375 -12.281,-70.875 l 0,-245.282 c 0,-3.132 0.609,-5.832 1.828,-8.093 1.218,-2.27 4.097,-3.407 8.64,-3.407 l 50.203,0 c 6.969,0 10.454,3.485 10.454,10.454 l 0,251.562 c 0,25.449 6.535,45.762 19.609,60.938 13.082,15.168 31.828,22.75 56.234,22.75 24.75,0 43.571,-7.411 56.469,-22.235 12.906,-14.82 19.359,-35.304 19.359,-61.453 l 0,-251.562 c 0,-6.969 3.489,-10.454 10.469,-10.454 l 50.203,0 c 4.532,0 7.407,1.137 8.625,3.407 1.219,2.261 1.828,4.961 1.828,8.093 l 0,245.282 c 0,26.156 -4.183,49.781 -12.546,70.875 -8.368,21.093 -21.09,38.617 -38.172,52.562 z"
           style="fill:#f9f9f9;fill-opacity:1;fill-rule:nonzero;stroke:#ffffff;stroke-opacity:1;stroke-width:14.106798;stroke-linecap:butt;stroke-linejoin:miter;stroke-miterlimit:4;stroke-dasharray:none"
           id="path20" /></g><g
         id="g22"
         transform="matrix(1,0,0,-1,0,1795.0564)"><path
           d="m 78.219,987.699 0,97.281 120.812,0 c 4.188,0 6.891,0.79 8.11,2.36 1.218,1.574 1.828,4.277 1.828,8.109 l 0,44.969 c 0,3.836 -0.61,6.539 -1.828,8.109 -1.219,1.575 -3.922,2.36 -8.11,2.36 l -120.812,0 0,161.078 c 0,4.883 -0.699,8.109 -2.094,9.672 -1.398,1.57 -4.184,2.359 -8.359,2.359 l -49.688,0 c -4.187,0 -7.07,-0.699 -8.64,-2.094 -1.563,-1.398 -2.344,-4.711 -2.344,-9.937 l 0,-377.078 c 0,-5.582 0.695,-9.242 2.094,-10.985 1.394,-1.738 4.531,-2.609 9.406,-2.609 l 187.234,0 c 3.832,0 6.445,0.789 7.844,2.359 1.394,1.563 2.094,4.262 2.094,8.094 l 0,45.5 c 0,3.836 -0.61,6.539 -1.828,8.109 -1.219,1.563 -3.922,2.344 -8.11,2.344 l -127.609,0 z m 215.785,336.813 c -8.367,0 -13.422,-1.047 -15.172,-3.141 -1.742,-2.086 -2.609,-7.484 -2.609,-16.203 l 0,-365.578 c 0,-8.02 0.781,-13.07 2.343,-15.156 1.571,-2.094 6.368,-3.141 14.391,-3.141 l 186.188,0 c 5.925,0 9.238,1.047 9.937,3.141 0.695,2.086 1.047,5.218 1.047,9.406 l 0,40.797 c 0,4.875 -0.527,8.101 -1.578,9.672 -1.043,1.574 -4.18,2.359 -9.406,2.359 l -131.797,0 0,99.359 125,0 c 5.582,0 8.804,1.047 9.672,3.141 0.875,2.094 1.312,5.234 1.312,9.422 l 0,40.781 c 0,4.887 -0.609,8.117 -1.828,9.688 -1.219,1.562 -4.274,2.343 -9.156,2.343 l -125,0 0,107.735 137.031,0 c 5.57,0 8.797,0.875 9.672,2.625 0.875,1.742 1.312,4.875 1.312,9.406 l 0,40.797 c 0,4.531 -0.437,7.754 -1.312,9.672 -0.875,1.914 -4.102,2.875 -9.672,2.875 l -190.375,0 z m 466.949,-29.282 c -9.074,10.114 -21.105,18.395 -36.094,24.844 -14.992,6.446 -30.328,10.367 -46.015,11.766 -8.375,1.039 -17.883,1.211 -28.516,0.515 -10.637,-0.687 -21.012,-1.82 -31.125,-3.39 -10.105,-1.574 -19.344,-3.32 -27.719,-5.235 -8.367,-1.918 -14.636,-3.746 -18.812,-5.484 -3.836,-1.75 -6.277,-3.414 -7.328,-4.984 -1.043,-1.563 -1.215,-4.438 -0.516,-8.625 l 5.219,-50.719 c 0.351,-3.488 1.141,-5.582 2.359,-6.281 1.219,-0.696 3.922,-0.176 8.11,1.562 6.625,2.793 14.207,5.324 22.75,7.594 8.539,2.262 17.254,4.008 26.14,5.234 8.895,1.219 17.614,2.008 26.156,2.36 8.54,0.343 16.301,-0.36 23.282,-2.11 14.633,-3.476 25.086,-9.226 31.359,-17.25 6.281,-8.019 9.422,-19.523 9.422,-34.515 0,-3.145 -0.699,-6.805 -2.094,-10.985 -1.386,-4.187 -4,-8.804 -7.843,-13.859 -3.836,-5.063 -8.977,-10.379 -15.422,-15.953 -6.45,-5.582 -14.731,-11.508 -24.844,-17.781 -19.18,-11.852 -35.481,-22.836 -48.906,-32.954 -13.418,-10.113 -24.399,-20.14 -32.938,-30.078 -8.543,-9.937 -14.82,-20.132 -18.828,-30.593 -4.012,-10.457 -6.016,-21.961 -6.016,-34.516 0,-15.688 3.223,-30.242 9.672,-43.672 6.446,-13.426 15.336,-25.101 26.672,-35.031 11.332,-9.938 24.664,-17.695 40,-23.281 15.344,-5.582 31.91,-8.375 49.703,-8.375 17.781,0 33.031,1.312 45.75,3.937 12.727,2.617 23.274,5.84 31.641,9.672 4.539,2.094 7.07,3.84 7.594,5.234 0.519,1.387 0.429,4 -0.266,7.844 l -9.938,44.453 c -0.699,3.137 -1.921,5.055 -3.671,5.75 -1.743,0.699 -5.227,0.172 -10.453,-1.578 -16.387,-5.226 -31.465,-8.363 -45.235,-9.406 -13.773,-1.051 -25.715,0.168 -35.828,3.656 -10.117,3.492 -18.047,8.984 -23.797,16.484 -5.75,7.493 -8.625,16.993 -8.625,28.5 0,8.368 3.742,16.907 11.235,25.625 7.5,8.719 19.617,18.133 36.359,28.235 21.269,13.25 38.961,25.109 53.078,35.578 14.125,10.461 25.367,20.656 33.734,30.594 8.375,9.937 14.301,20.047 17.782,30.328 3.488,10.281 5.234,21.699 5.234,34.25 0,16.742 -2.883,31.914 -8.641,45.515 -5.75,13.594 -13.679,25.969 -23.781,37.125 z m 233.035,-308.046 0,326.359 c 0,4.176 -0.789,6.961 -2.359,8.359 -1.563,1.395 -4.09,2.094 -7.578,2.094 l -51.25,0 c -3.492,0 -6.024,-0.699 -7.594,-2.094 -1.562,-1.398 -2.344,-4.183 -2.344,-8.359 l 0,-326.359 -92.578,0 c -3.836,0 -6.539,-0.696 -8.109,-2.094 -1.563,-1.395 -2.344,-4.008 -2.344,-7.844 l 0,-45.5 c 0,-6.969 3.484,-10.453 10.453,-10.453 l 257.313,0 c 4.539,0 7.422,0.789 8.64,2.359 1.219,1.563 1.828,4.262 1.828,8.094 l 0,45.5 c 0,3.836 -0.609,6.449 -1.828,7.844 -1.218,1.398 -4.101,2.094 -8.64,2.094 l -93.61,0 z"
           style="fill:#f9f9f9;fill-opacity:1;fill-rule:nonzero;stroke:#ffffff;stroke-opacity:1;stroke-width:14.106798;stroke-linecap:butt;stroke-linejoin:miter;stroke-miterlimit:4;stroke-dasharray:none"
           id="path24" /></g><g
         id="g26"
         transform="matrix(1,0,0,-1,0,1795.0564)"><path
           d="m 20.676,1782.273 c -4.887,0 -8.375,-0.527 -10.469,-1.578 -2.086,-1.043 -3.125,-4.007 -3.125,-8.89 l 0,-37.125 c 0,-3.832 0.867,-7.055 2.609,-9.672 1.739,-2.613 3.832,-5.317 6.282,-8.11 l 76.343,-92.046 c 28.25,-34.164 48.649,-62.055 61.204,-83.672 12.55,-21.625 18.828,-38.883 18.828,-51.782 0,-14.3 -3.75,-25.632 -11.25,-34 -7.5,-8.363 -18.219,-13.242 -32.157,-14.64 -13.25,-1.395 -26.679,0 -40.281,4.187 -13.594,4.18 -28.762,10.977 -45.5,20.391 -4.875,2.793 -8.277,3.75 -10.203,2.875 -1.918,-0.875 -3.227,-2.879 -3.922,-6.016 l -9.406,-46.031 c -0.699,-2.781 -0.617,-5.039 0.25,-6.781 0.875,-1.75 3.406,-4.02 7.594,-6.813 6.625,-4.531 14.117,-8.625 22.484,-12.281 8.375,-3.664 17.004,-6.805 25.891,-9.422 8.894,-2.613 17.695,-4.531 26.406,-5.75 8.719,-1.219 16.566,-1.828 23.547,-1.828 16.726,0 32.5,2.445 47.312,7.328 14.821,4.875 27.641,12.11 38.453,21.703 10.813,9.586 19.352,21.528 25.625,35.828 6.282,14.293 9.422,30.852 9.422,49.672 0,16.387 -3.492,32.778 -10.468,49.172 -6.969,16.387 -15.512,32.34 -25.625,47.86 -10.118,15.511 -21.012,30.328 -32.688,44.453 -11.68,14.117 -22.227,26.922 -31.641,38.422 -5.929,7.679 -12.992,16.046 -21.187,25.109 -8.188,9.062 -15.594,17.434 -22.219,25.109 l 138.078,0 c 5.227,0 8.453,0.875 9.672,2.625 1.219,1.742 1.828,5.047 1.828,9.922 l 0,39.235 c 0,5.226 -0.699,8.625 -2.093,10.187 -1.399,1.57 -4.532,2.359 -9.407,2.359 l -220.187,0 z m 440.933,5.75 c -23.355,0 -43.578,-4.968 -60.671,-14.906 -17.086,-9.937 -31.118,-23.969 -42.094,-42.094 -10.981,-18.132 -19.09,-40.015 -24.328,-65.64 -5.231,-25.625 -7.844,-54.129 -7.844,-85.516 0,-13.945 0.695,-28.765 2.094,-44.453 1.394,-15.687 3.922,-31.203 7.578,-46.547 3.664,-15.344 8.722,-30.07 15.172,-44.187 6.457,-14.125 14.648,-26.586 24.578,-37.391 9.937,-10.812 21.968,-19.441 36.094,-25.891 14.124,-6.457 30.597,-9.687 49.421,-9.687 18.832,0 35.219,3.23 49.157,9.687 13.945,6.45 25.89,15.079 35.828,25.891 9.937,10.805 18.039,23.266 24.312,37.391 6.282,14.117 11.25,28.933 14.906,44.453 3.665,15.512 6.196,31.117 7.594,46.812 1.395,15.688 2.094,30.328 2.094,43.922 0,31.387 -2.617,59.809 -7.844,85.266 -5.23,25.449 -13.34,47.324 -24.328,65.625 -10.98,18.304 -24.84,32.422 -41.578,42.359 -16.73,9.938 -36.777,14.906 -60.141,14.906 z m 0,-348.312 c -8.718,0 -16.914,2.266 -24.578,6.797 -7.668,4.531 -14.383,12.293 -20.14,23.281 -5.75,10.981 -10.282,25.449 -13.594,43.406 -3.313,17.95 -4.969,40.172 -4.969,66.672 0,26.856 1.656,49.262 4.969,67.219 3.312,17.949 7.844,32.328 13.594,43.141 5.757,10.804 12.472,18.476 20.14,23.015 7.664,4.531 15.86,6.797 24.578,6.797 8.719,0 16.911,-2.266 24.579,-6.797 7.675,-4.539 14.39,-12.211 20.14,-23.015 5.75,-10.813 10.281,-25.192 13.594,-43.141 3.312,-17.957 4.969,-40.363 4.969,-67.219 0,-26.5 -1.657,-48.722 -4.969,-66.672 -3.313,-17.957 -7.844,-32.425 -13.594,-43.406 -5.75,-10.988 -12.465,-18.75 -20.14,-23.281 -7.668,-4.531 -15.86,-6.797 -24.579,-6.797 z m 294.496,342.562 c -3.835,0 -6.449,-0.789 -7.843,-2.359 -1.399,-1.562 -2.094,-4.437 -2.094,-8.625 l 0,-298.109 -31.891,30.328 c -5.586,5.23 -9.945,5.758 -13.078,1.578 l -30.859,-35.047 c -2.094,-2.437 -2.711,-4.613 -1.844,-6.531 0.875,-1.914 2.883,-4.27 6.031,-7.063 l 80.532,-75.312 c 3.843,-3.133 8.031,-4.703 12.562,-4.703 l 34.516,0 c 7.664,0 12.195,0.871 13.593,2.609 1.395,1.742 2.094,6.969 2.094,15.688 l 0,376.562 c 0,3.832 -0.699,6.617 -2.094,8.359 -1.398,1.75 -4.011,2.625 -7.843,2.625 l -51.782,0 z m 418.45,-31.375 c -12.899,11.852 -28.414,20.567 -46.547,26.141 -18.125,5.582 -37.125,8.375 -57,8.375 -6.281,0 -13.344,-0.437 -21.188,-1.312 -7.843,-0.875 -15.687,-2.102 -23.531,-3.672 -7.844,-1.563 -15.34,-3.391 -22.484,-5.485 -7.149,-2.093 -13.164,-4.359 -18.047,-6.797 -2.793,-1.398 -4.625,-2.621 -5.5,-3.671 -0.867,-1.043 -1.297,-3.481 -1.297,-7.313 l 0,-49.156 c 0,-4.188 0.781,-6.801 2.344,-7.844 1.57,-1.051 4.101,-0.879 7.593,0.516 5.227,2.093 11.329,4.101 18.297,6.015 6.977,1.918 14.301,3.75 21.969,5.5 7.676,1.743 15.52,3.137 23.531,4.188 8.02,1.043 15.52,1.562 22.5,1.562 20.571,0 37.395,-6.097 50.469,-18.297 13.07,-12.207 19.609,-28.773 19.609,-49.703 0,-19.519 -5.32,-35.554 -15.953,-48.109 -10.636,-12.551 -28.679,-18.828 -54.125,-18.828 -10.117,0 -21.367,1.137 -33.75,3.406 -12.375,2.262 -23.793,5.309 -34.25,9.141 -3.136,1.398 -6.273,2.531 -9.406,3.406 -3.137,0.875 -5.93,1.055 -8.375,0.531 -2.437,-0.531 -4.355,-2.101 -5.75,-4.719 -1.398,-2.613 -2.094,-6.707 -2.094,-12.281 l 2.625,-194.047 c 0,-5.226 1.039,-8.535 3.125,-9.922 2.094,-1.394 6.102,-2.093 12.032,-2.093 l 189.859,0 c 4.176,0 6.875,0.789 8.094,2.359 1.226,1.563 1.843,4.262 1.843,8.094 l 0,43.406 c 0,3.836 -0.527,6.625 -1.578,8.375 -1.043,1.742 -3.828,2.609 -8.359,2.609 l -135.984,0 -2.094,85.25 c 5.926,-1.394 12.113,-2.351 18.562,-2.875 6.446,-0.519 12.633,-0.781 18.563,-0.781 17.789,0 34.441,2.703 49.953,8.11 15.519,5.398 29.031,13.242 40.531,23.531 11.508,10.281 20.578,23.008 27.203,38.172 6.625,15.168 9.938,32.515 9.938,52.047 0,44.625 -13.778,80.015 -41.328,106.171 z"
           style="fill:#f9f9f9;fill-opacity:1;fill-rule:nonzero;stroke:#ffffff;stroke-opacity:1;stroke-width:14.106798;stroke-linecap:butt;stroke-linejoin:miter;stroke-miterlimit:4;stroke-dasharray:none"
           id="path28" /></g><g
         id="g30"
         transform="matrix(1,0,0,-1,0,1795.0564)"><path
           d="M 1068.281,463.961 1174.75,326.828 m 0,0 15.332,53.66 -77.312,83.758 -44.489,-0.285"
           style="fill:#f9f9f9;fill-opacity:1;fill-rule:nonzero;stroke:#ffffff;stroke-opacity:1;stroke-width:14.106798;stroke-linecap:round;stroke-linejoin:round;stroke-miterlimit:4;stroke-dasharray:none"
           id="path32" /></g><path
         d="m 1908.621,595.052 c -123.793,0 -147.012,-176.316 -77.375,-176.316 69.629,0 201.168,176.316 77.375,176.316 z"
         style="fill:#ffffff;fill-opacity:1;fill-rule:nonzero;stroke:none"
         id="path34" /><path
         d="m 1703.07,440.584 c 37.078,-2.266 77.758,141.5 8.071,132.461 -69.664,-9.043 -45.164,-130.196 -8.071,-132.461 z"
         style="fill:#ffffff;fill-opacity:1;fill-rule:nonzero;stroke:none"
         id="path36" /><path
         d="m 1533.137,351.252 c 26.371,11.605 3.398,125.148 -41.446,94.183 -44.82,-30.972 15.075,-105.789 41.446,-94.183 z"
         style="fill:#ffffff;fill-opacity:1;fill-rule:nonzero;stroke:none"
         id="path38" /><path
         d="m 1607.441,410.681 c 31.395,6.399 33.114,135.172 -22.867,112.071 -55.996,-23.106 -8.5,-118.481 22.867,-112.071 z"
         style="fill:#ffffff;fill-opacity:1;fill-rule:nonzero;stroke:none"
         id="path40" /><path
         d="m 1771.371,122.51 c 5.57,-42.54 -31.207,-63.547 -67.226,-36.125 -114.657,87.296 189.843,130.847 169.773,250.109 -16.66,98.992 -320.402,68.516 -354.988,-86.379 -23.414,-104.766 96.371,-250.113 221.359,-250.113 61.488,0 132.41,55.519 145.68,125.851 10.133,53.633 -119.246,32.145 -114.598,-3.343 z"
         style="fill:#ffffff;fill-opacity:1;fill-rule:nonzero;stroke:none"
         id="path42" /></g></g></svg>